<svg xmlns="http://www.w3.org/2000/svg" width="2299.104" height="1927.841" viewBox="0 0 2299.104 1927.841"><g transform="translate(-473.313 583.423)"><path d="M-7896.5,3917s-7.768,155.622,40.689,363.393,490.3,411.887,659.905,629.944,646.1,298.82,864.155,290.744,395.734-290.744,395.734-290.744-274.591-403.811-573.411-403.811-516.877-88.838-686.478-226.134S-7470.5,3666.6-7470.5,3666.6Z" transform="translate(8675 -4048)" fill="#f065a6"/><path d="M-7932.678,3354.155s-28.667,808.777,130.594,912.171c17.084,7.177,581.949,296.735,751.55,514.792s532.568,512.479,861.811,476.468c37.2-4.069,404.249,10.38,432.13,0,215.813-80.343,77.166-751.059,77.166-751.059h-830c-298.82,0-516.877-88.838-686.478-226.134s-304.642-946.816-304.642-946.816Z" transform="translate(8408 -3917)" fill="#d5498f"/></g></svg>