<svg xmlns="http://www.w3.org/2000/svg" width="117" height="47" viewBox="0 0 117 47"><g transform="translate(-142 -168)"><text transform="translate(151 171)" fill="#2a2a2a" font-size="24" font-family="Poppins-Black, Poppins" font-weight="800"><tspan x="0.828" y="25">network</tspan></text><text transform="translate(174 196)" fill="#2a2a2a" font-size="12" font-family="Poppins-Medium, Poppins" font-weight="500"><tspan x="2.306" y="13">Technologies</tspan></text><path d="M3.5,0h0A3.5,3.5,0,0,1,7,3.5V19a0,0,0,0,1,0,0H0a0,0,0,0,1,0,0V3.5A3.5,3.5,0,0,1,3.5,0Z" transform="translate(142 177)" fill="#2a2a2a"/><circle cx="3.5" cy="3.5" r="3.5" transform="translate(142 168)" fill="#06f"/><line x2="21" transform="translate(236.5 171.5)" fill="none" stroke="#06f" stroke-linecap="round" stroke-width="2"/><line x2="13" transform="translate(244.5 175.5)" fill="none" stroke="#06f" stroke-linecap="round" stroke-width="2"/><line x2="6" transform="translate(251.5 179.5)" fill="none" stroke="#06f" stroke-linecap="round" stroke-width="2"/></g></svg>