<svg xmlns="http://www.w3.org/2000/svg" width="141.761" height="33" viewBox="0 0 141.761 33"><g transform="translate(-1296 -993)"><rect width="12" height="33" rx="6" transform="translate(1296 993)" fill="#373737"/><path d="M29.628,30H27.576L21.4,20.658V30H19.35V17.472H21.4L27.576,26.8V17.472h2.052Zm4.747-10.854v3.672h4.32v1.674h-4.32v3.834h4.86V30H32.323V17.472h6.912v1.674ZM49.844,17.49v1.674h-3.33V30H44.462V19.164H41.114V17.49Zm18.368,0L64.5,30H62.182l-2.628-9.468L56.764,30l-2.3.018L50.914,17.49h2.178l2.592,10.188L58.492,17.49h2.3l2.61,10.134,2.61-10.134Zm7.4,12.636a6.588,6.588,0,0,1-3.222-.81,6.241,6.241,0,0,1-2.322-2.286,6.54,6.54,0,0,1-.846-3.312,6.442,6.442,0,0,1,.846-3.294,6.105,6.105,0,0,1,2.322-2.268,6.475,6.475,0,0,1,3.222-.828,6.41,6.41,0,0,1,3.222.828,5.942,5.942,0,0,1,2.322,2.268A6.442,6.442,0,0,1,82,23.718a6.54,6.54,0,0,1-.846,3.312,6.07,6.07,0,0,1-2.322,2.286A6.522,6.522,0,0,1,75.611,30.126Zm0-1.782a4.366,4.366,0,0,0,2.214-.558,3.945,3.945,0,0,0,1.512-1.62,5.186,5.186,0,0,0,.558-2.448,5.079,5.079,0,0,0-.558-2.43,3.826,3.826,0,0,0-1.512-1.6,4.671,4.671,0,0,0-4.428,0,3.942,3.942,0,0,0-1.53,1.6,5.218,5.218,0,0,0-.54,2.43,5.329,5.329,0,0,0,.54,2.448,4.067,4.067,0,0,0,1.53,1.62A4.366,4.366,0,0,0,75.611,28.344ZM90.518,30l-2.88-5H86.072v5H84.02V17.49h4.32a5.314,5.314,0,0,1,2.43.5,3.428,3.428,0,0,1,1.494,1.35,3.622,3.622,0,0,1,.5,1.89,3.753,3.753,0,0,1-.72,2.232,3.585,3.585,0,0,1-2.178,1.35L92.966,30Zm-4.446-6.642H88.34a2.347,2.347,0,0,0,1.728-.576,2.057,2.057,0,0,0,.594-1.548,1.971,1.971,0,0,0-.576-1.512,2.422,2.422,0,0,0-1.746-.558H86.072ZM102.287,30l-4.842-5.6V30H95.393V17.49h2.052V23.2l4.86-5.706h2.574l-5.436,6.264L104.969,30Z" transform="translate(1296 993)" fill="#2f2e41"/><path d="M118.052,17.454V30h-1.638V24.312h-6.39V30h-1.638V17.454h1.638v5.508h6.39V17.454Zm4.4,0v7.938a3.382,3.382,0,0,0,.81,2.484,3.129,3.129,0,0,0,2.286.81,3.041,3.041,0,0,0,2.25-.81,3.336,3.336,0,0,0,.828-2.484V17.454h1.638v7.92a5.172,5.172,0,0,1-.63,2.646,3.957,3.957,0,0,1-1.71,1.584,5.355,5.355,0,0,1-2.394.522,5.47,5.47,0,0,1-2.412-.522,3.981,3.981,0,0,1-1.692-1.584,5.294,5.294,0,0,1-.612-2.646v-7.92Zm16.826,6.084a2.6,2.6,0,0,1,1.242.558,3.139,3.139,0,0,1,.9,1.116,3.069,3.069,0,0,1,.342,1.422,3.183,3.183,0,0,1-.486,1.728,3.375,3.375,0,0,1-1.422,1.206,5.074,5.074,0,0,1-2.178.432h-4.68V17.454h4.5a5,5,0,0,1,2.178.432,3.028,3.028,0,0,1,1.35,1.134,2.993,2.993,0,0,1,.45,1.62,2.807,2.807,0,0,1-.612,1.854A3.346,3.346,0,0,1,139.277,23.538Zm-4.644-.666h2.754a2.657,2.657,0,0,0,1.782-.54,2.086,2.086,0,0,0,0-2.988,2.718,2.718,0,0,0-1.818-.54h-2.718Zm2.9,5.778a2.875,2.875,0,0,0,1.908-.576,1.981,1.981,0,0,0,.684-1.6,2.008,2.008,0,0,0-.72-1.638,2.875,2.875,0,0,0-1.926-.612h-2.844V28.65Z" transform="translate(1296 993)" fill="#727272"/><rect width="12" height="12" rx="6" transform="translate(1296 993)" fill="#279af1"/></g></svg>