<svg xmlns="http://www.w3.org/2000/svg" width="617.289" height="483.416" viewBox="0 0 617.289 483.416"><g transform="translate(-1024.711 -2908)"><g transform="translate(478.54 -204.594)"><path d="M234,258.609a7.9,7.9,0,1,1,7.9-7.9A8.049,8.049,0,0,1,234,258.609Zm0-12.769a4.864,4.864,0,1,0,4.864,4.864A5,5,0,0,0,234,245.84Z" transform="translate(341.137 3093.879)" fill="#46cccc" opacity="0.4"/><path d="M227.332,241.964a2.432,2.432,0,1,1,2.432-2.432C230.068,241.052,228.852,241.964,227.332,241.964Z" transform="translate(338.689 3082.25)" fill="#48cc90" opacity="0.4"/><path d="M779.646,502.5a17.289,17.289,0,0,1-16.113,18.241l-181.2,10.641-16.721.912-11.249.608-16.721.912-26.754,1.52L489,536.553l-9.425.608-21.89,1.216-173.9,10.033A17.289,17.289,0,0,1,265.545,532.3L247,214.9l513.8-30.1Z" transform="translate(383.778 2975.546)" fill="#d5498f"/><path d="M494.516,471.735H281.4a14.921,14.921,0,0,1-14.9-14.9V219.4a14.921,14.921,0,0,1,14.9-14.9H494.516a14.921,14.921,0,0,1,14.9,14.9V456.838A14.921,14.921,0,0,1,494.516,471.735Z" transform="translate(423.562 3015.739)" fill="#fe9dca" opacity="0.5"/><path d="M762.543,217.15l-513.8,29.794L246.314,205.9A7.146,7.146,0,0,1,253,198.3l499.812-29.186a7.146,7.146,0,0,1,7.6,6.688Z" transform="translate(382.336 2943.501)" fill="#d3d3d3"/><rect width="495.86" height="15.809" transform="translate(638.942 3164.133) rotate(-3.334)" fill="#f2f2f2"/><rect width="8.209" height="8.209" transform="translate(638.143 3150.558) rotate(-3.327)" fill="#f9f4ea"/><rect width="8.209" height="8.209" transform="translate(653.041 3149.645) rotate(-3.338)" fill="#f9f4ea"/><rect width="8.209" height="8.209" transform="translate(667.631 3148.74) rotate(-3.338)" fill="#f9f4ea"/><path d="M269.121,269.343a6.966,6.966,0,0,1-6.992-6.384L260,226.476a6.9,6.9,0,0,1,1.824-4.864,7.506,7.506,0,0,1,4.864-2.432l214.943-12.465a7.023,7.023,0,0,1,7.3,6.384l2.128,36.483a6.9,6.9,0,0,1-1.824,4.864,7.506,7.506,0,0,1-4.864,2.432L269.425,269.343Zm212.815-59.284h0L266.992,222.523a3.753,3.753,0,0,0-2.432,1.216,3.452,3.452,0,0,0-.912,2.432l2.128,36.483A3.65,3.65,0,0,0,269.425,266l214.943-12.465a3.753,3.753,0,0,0,2.432-1.216,3.452,3.452,0,0,0,.912-2.432L485.584,213.4A3.65,3.65,0,0,0,481.936,210.058Z" transform="translate(410.301 3020.213)" fill="#bbceff"/><path d="M270.335,289.643a6.966,6.966,0,0,1-6.992-6.384l-2.128-36.483a6.835,6.835,0,0,1,6.384-7.3l214.943-12.465a6.835,6.835,0,0,1,7.3,6.384l2.128,36.483a6.835,6.835,0,0,1-6.385,7.3L270.639,289.643ZM483.15,230.358h0L268.207,242.823a3.651,3.651,0,0,0-3.344,3.648l2.128,36.483a3.651,3.651,0,0,0,3.648,3.344l214.943-12.465a3.65,3.65,0,0,0,3.344-3.648L486.8,233.7A3.886,3.886,0,0,0,483.15,230.358Z" transform="translate(412.735 3061.629)" fill="#bbceff"/><path d="M478.516,275.472l-215.247-3.648a5.2,5.2,0,0,1-5.168-5.472l.608-36.483a5.2,5.2,0,0,1,5.472-5.168l215.247,3.648a5.2,5.2,0,0,1,5.168,5.472l-.608,36.483A5.2,5.2,0,0,1,478.516,275.472Z" transform="translate(406.424 3056.951)" fill="#f6f3ff"/><path d="M271.521,310.147a6.187,6.187,0,0,1-4.56-1.824,7.506,7.506,0,0,1-2.432-4.864L262.4,266.975a6.9,6.9,0,0,1,1.824-4.864,7.506,7.506,0,0,1,4.864-2.432l214.943-12.465a7.023,7.023,0,0,1,7.3,6.384l2.128,36.483a6.835,6.835,0,0,1-6.384,7.3L272.129,309.843C271.825,310.147,271.825,310.147,271.521,310.147Zm212.815-59.284h0L269.393,263.327a3.753,3.753,0,0,0-2.432,1.216,3.452,3.452,0,0,0-.912,2.432l2.128,36.483a3.651,3.651,0,0,0,3.648,3.344l214.943-12.465a3.65,3.65,0,0,0,3.344-3.648l-2.128-36.483A3.887,3.887,0,0,0,484.336,250.862Z" transform="translate(415.197 3102.842)" fill="#bbceff"/><path d="M272.721,330.433a6.187,6.187,0,0,1-4.56-1.824,7.506,7.506,0,0,1-2.432-4.864L263.6,287.261a6.9,6.9,0,0,1,1.824-4.864,7.506,7.506,0,0,1,4.864-2.432L485.232,267.5a6.9,6.9,0,0,1,4.864,1.824,7.506,7.506,0,0,1,2.432,4.864l2.128,36.483a6.835,6.835,0,0,1-6.384,7.3L273.329,330.433Zm212.815-59.284h0L270.593,283.613a3.753,3.753,0,0,0-2.432,1.216,3.452,3.452,0,0,0-.912,2.432l2.128,36.483a3.65,3.65,0,0,0,3.648,3.344l214.943-12.465a3.65,3.65,0,0,0,3.344-3.648l-2.128-36.483a3.753,3.753,0,0,0-1.216-2.432A4.044,4.044,0,0,0,485.536,271.148Z" transform="translate(417.646 3144.272)" fill="#bbceff"/><rect width="5.472" height="90.598" transform="translate(676.527 3295.288) rotate(-89.068)" fill="#7bcaff"/><rect width="5.472" height="90.598" transform="translate(676.333 3304.899) rotate(-89.068)" fill="#7bcaff"/><rect width="5.472" height="40.131" transform="translate(676.237 3314.198) rotate(-89.067)" fill="#7bcaff"/><rect width="24.626" height="24.626" transform="translate(821.325 3317.092) rotate(-89.067)" fill="#7bcaff" opacity="0.6"/><rect width="24.626" height="24.626" transform="translate(850.007 3317.518) rotate(-89.067)" fill="#7bcaff" opacity="0.6"/><rect width="137.722" height="3.344" transform="translate(1140.445 3439.255) rotate(-89.523)" fill="#4c8"/><rect width="46.211" height="3.344" transform="translate(990.281 3438.007) rotate(-89.523)" fill="#edf4fc"/><rect width="96.983" height="3.344" transform="translate(1065.442 3438.715) rotate(-89.522)" fill="#edf4fc"/><rect width="91.511" height="7.297" transform="translate(703.599 3376.726) rotate(-3.333)" fill="#7bcaff" opacity="0.5"/><rect width="61.716" height="7.297" transform="translate(704.191 3389.55) rotate(-3.337)" fill="#7bcaff" opacity="0.5"/><rect width="15.505" height="7.297" transform="matrix(0.998, -0.058, 0.058, 0.998, 772.849, 3385.463)" fill="#7bcaff" opacity="0.5"/><rect width="91.511" height="7.297" transform="translate(696.301 3254.833) rotate(-3.334)" fill="#7bcaff" opacity="0.5"/><rect width="54.42" height="7.297" transform="translate(697.196 3267.727) rotate(-3.334)" fill="#7bcaff" opacity="0.5"/><rect width="57.764" height="7.297" transform="translate(758.609 3264.185) rotate(-3.333)" fill="#7bcaff" opacity="0.5"/><rect width="36.483" height="7.297" transform="translate(707.208 3438.667) rotate(-3.331)" fill="#7bcaff" opacity="0.5"/><rect width="36.483" height="7.297" transform="translate(750.366 3435.94) rotate(-3.331)" fill="#7bcaff" opacity="0.5"/><rect width="61.716" height="7.297" transform="translate(707.839 3451.263) rotate(-3.337)" fill="#7bcaff" opacity="0.5"/><rect width="60.804" height="7.297" transform="translate(776.543 3447.283) rotate(-3.333)" fill="#7bcaff" opacity="0.5"/><path d="M373.245,234.044A75.394,75.394,0,0,0,255.589,323.73a77.8,77.8,0,0,0,12.161,17.937l-6.992,7.9-1.52-1.52-2.128,2.128,1.52,28.274,14.593-17.937L271.7,359l6.992-7.9a75.5,75.5,0,0,0,48.643,14.289,76.467,76.467,0,0,0,51.988-25.234,74.764,74.764,0,0,0,18.849-54.42C397.263,265.662,388.142,247.421,373.245,234.044Zm-8.817,93.031a55.343,55.343,0,1,1-44.691-92.119c14.9-.912,28.882,4.256,40.131,13.985a55.127,55.127,0,0,1,4.56,78.134Z" transform="translate(385.526 3037.271)" fill="#375e82" opacity="0.4"/><rect width="26.754" height="14.593" transform="translate(602.891 3356.772) rotate(-48.332)" fill="#38464c"/><path d="M223.516,323.914h0a12.809,12.809,0,0,0,18.545-1.52l50.772-62.325L278.544,247.3,222.6,305.064A13.406,13.406,0,0,0,223.516,323.914Z" transform="translate(327 3103.06)" fill="#676772"/><path d="M238.373,276.295a65.3,65.3,0,0,0,69.013,61.412,66.557,66.557,0,0,0,40.131-16.721,60.889,60.889,0,0,0,10.033-11.553,53.163,53.163,0,0,0,4.864-8.209,64.008,64.008,0,0,0,6.688-27.666V268.39a65.3,65.3,0,0,0-69.013-61.412,29.958,29.958,0,0,0-5.168.608,64.418,64.418,0,0,0-26.45,9.729,69.929,69.929,0,0,0-17.937,17.025A66.879,66.879,0,0,0,238.373,276.295Z" transform="translate(365.955 3020.557)" fill="#bde5f2" opacity="0.6"/><path d="M248.1,216.829l94.247,83.91a64.009,64.009,0,0,0,6.688-27.666L274.55,207.1A67.784,67.784,0,0,0,248.1,216.829Z" transform="translate(386.022 3021.043)" fill="#e3fbff" opacity="0.3"/><path d="M242.3,223.653,339.283,310a60.892,60.892,0,0,0,10.033-11.553L252.333,212.1A118.653,118.653,0,0,0,242.3,223.653Z" transform="translate(374.189 3031.244)" fill="#e3fbff" opacity="0.3"/><path d="M310.353,354.489a75.4,75.4,0,0,1-56.244-125.561A75.953,75.953,0,0,1,306.1,203.695a74.32,74.32,0,0,1,54.42,18.849,75.953,75.953,0,0,1,25.234,51.988,74.32,74.32,0,0,1-18.849,54.42A75.514,75.514,0,0,1,310.353,354.489Zm0-130.729h-3.344a53.744,53.744,0,0,0-38,18.545,55.176,55.176,0,0,0-13.985,40.131,53.745,53.745,0,0,0,18.545,38,55.433,55.433,0,0,0,92.119-44.691,53.744,53.744,0,0,0-18.545-38A54.406,54.406,0,0,0,310.353,223.76Z" transform="translate(359.339 3013.808)" fill="#375e82"/><g transform="translate(72 43)"><path d="M371.8,179.925a13.478,13.478,0,0,1,13.985,3.648,11.308,11.308,0,0,1,3.04,6.688l-6.384.912a6.466,6.466,0,0,0-6.08-5.472,5.926,5.926,0,0,0-2.432.3Z" transform="translate(638.397 2964.308)" fill="#edf4fc"/><path d="M373.247,180.6l.3-.3,4.256,4.864a8.364,8.364,0,0,0-2.432,4.56,6.5,6.5,0,0,0,6.08,6.993,7.009,7.009,0,0,0,6.08-3.344l5.776,3.344a9.5,9.5,0,0,1-2.736,3.344,13.319,13.319,0,0,1-18.545-.912C367.471,193.677,367.775,185.164,373.247,180.6Z" transform="translate(632.39 2966.366)" fill="#ffc550"/><path d="M375.912,185.332v-1.52l6.385-.912a12,12,0,0,1-1.52,8.513L375,188.068A4.243,4.243,0,0,0,375.912,185.332Z" transform="translate(644.926 2971.67)" fill="#ffc550"/><path d="M370.4,181.932a11.929,11.929,0,0,1,4.256-2.432l2.128,6.08a4.9,4.9,0,0,0-2.128,1.216Z" transform="translate(635.541 2964.733)" fill="#4c8"/></g><g transform="translate(83 34)"><path d="M388.557,213.132a12.91,12.91,0,0,1-12.465,7.3A11.477,11.477,0,0,1,369.1,218l3.952-5.168a6.852,6.852,0,0,0,8.209-.3,8.06,8.06,0,0,0,1.52-1.824Z" transform="translate(632.889 3028.388)" fill="#4c8"/><path d="M393.222,219.193v.3l-6.385-.608a5.608,5.608,0,0,0-1.52-4.864c-2.432-2.736-6.688-3.04-9.121-.608-1.824,1.824-2.736,4.256-1.824,6.688l-6.385,1.824a9.761,9.761,0,0,1-.3-4.256,13.177,13.177,0,0,1,13.681-12.465A13.407,13.407,0,0,1,393.222,219.193Z" transform="translate(629.744 3017.159)" fill="#d1d9fe"/><path d="M375.4,212.836l.912.912-3.952,5.168a12.355,12.355,0,0,1-4.864-6.993l6.384-1.824A4.093,4.093,0,0,0,375.4,212.836Z" transform="translate(629.624 3027.164)" fill="#edf4fc"/><path d="M380.692,210.612a11.271,11.271,0,0,1-1.216,4.56l-5.776-3.04a5.726,5.726,0,0,0,.608-2.432Z" transform="translate(642.274 3026.348)" fill="#ffc550"/></g><g transform="translate(78 38)"><path d="M375.411,213.457a12.91,12.91,0,0,1-7.3-12.465A11.477,11.477,0,0,1,370.546,194l5.168,3.952a6.852,6.852,0,0,0,.3,8.209,8.059,8.059,0,0,0,1.824,1.52Z" transform="matrix(0.998, 0.07, -0.07, 0.998, 645.954, 2968.796)" fill="#d1d9fe"/><path d="M374.036,218.122h-.3l.608-6.384a5.608,5.608,0,0,0,4.864-1.52c2.736-2.432,3.04-6.688.608-9.121-1.824-1.824-4.256-2.736-6.688-1.824l-1.824-6.384a9.76,9.76,0,0,1,4.256-.3,13.177,13.177,0,0,1,12.465,13.681A13.407,13.407,0,0,1,374.036,218.122Z" transform="translate(637.377 2991.172)" fill="#4c8"/><path d="M375.08,200.3l-.912.912L369,197.264a12.355,12.355,0,0,1,6.992-4.864l1.824,6.384A4.093,4.093,0,0,0,375.08,200.3Z" transform="translate(632.685 2991.052)" fill="#ffc550"/><path d="M375.06,205.592a11.271,11.271,0,0,1-4.56-1.216l3.04-5.776a5.726,5.726,0,0,0,2.432.608Z" transform="matrix(0.999, -0.035, 0.035, 0.999, 628.919, 3016.851)" fill="#edf4fc"/></g><path d="M476.567,314.455,457.11,362.49a4.817,4.817,0,0,1-6.688,2.736l-65.669-26.45a4.817,4.817,0,0,1-2.736-6.689l19.457-48.035a4.817,4.817,0,0,1,6.688-2.736l65.669,26.45C476.263,308.678,477.479,311.719,476.567,314.455Z" transform="translate(658.279 3171.499)" fill="#abb2b7" opacity="0.5"/><path d="M476.532,309.991,459.81,358.939a4.852,4.852,0,0,1-6.384,3.04l-66.885-23.106a4.852,4.852,0,0,1-3.04-6.384l16.721-48.948a4.852,4.852,0,0,1,6.384-3.04l66.885,23.106A4.961,4.961,0,0,1,476.532,309.991Z" transform="translate(661.659 3170.186)" fill="#cad3db" opacity="0.5"/><path d="M477.3,304.115l-13.681,49.859a5.116,5.116,0,0,1-6.08,3.648l-68.4-18.545A5.117,5.117,0,0,1,385.489,333l13.681-49.86a5.116,5.116,0,0,1,6.08-3.648l68.4,18.545A5.116,5.116,0,0,1,477.3,304.115Z" transform="translate(666.055 3168.462)" fill="#edf4fc"/><path d="M470.074,304.319l-3.04,10.945L388.9,293.982l3.04-10.945a5.116,5.116,0,0,1,6.08-3.648l68.4,18.545A5.609,5.609,0,0,1,470.074,304.319Z" transform="translate(673.285 3168.258)" fill="#4c8"/><rect width="3.648" height="80.87" transform="translate(1061.095 3465.909) rotate(-74.728)" fill="#fff"/><path d="M405.71,288.054a5.973,5.973,0,1,1-4.256-7.3C404.494,281.669,406.622,285.013,405.71,288.054Z" transform="translate(683.533 3170.843)" fill="#32a066"/><path d="M419.31,291.854a5.973,5.973,0,1,1-4.256-7.3A6,6,0,0,1,419.31,291.854Z" transform="translate(711.28 3178.595)" fill="#32a066"/><path d="M398.747,295.212h-1.216a4.265,4.265,0,0,1-3.04-5.168l2.432-8.513a4.417,4.417,0,0,1,5.168-3.04,4.264,4.264,0,0,1,3.04,5.168l-2.432,8.513A3.937,3.937,0,0,1,398.747,295.212Z" transform="translate(684.415 3166.42)" fill="#ffc550"/><path d="M412.447,299.116h-1.216a4.265,4.265,0,0,1-3.04-5.168l2.432-8.817a4.24,4.24,0,1,1,8.209,2.128l-2.432,8.817A4.2,4.2,0,0,1,412.447,299.116Z" transform="translate(712.366 3173.765)" fill="#ffc550"/><rect width="6.688" height="7.905" transform="translate(1066.847 3481.018) rotate(-74.728)" fill="#72edad"/><rect width="6.688" height="7.905" transform="matrix(0.264, -0.965, 0.965, 0.264, 1119.266, 3495.495)" fill="#72edad"/><rect width="6.688" height="7.905" transform="translate(1106.068 3491.88) rotate(-74.728)" fill="#72edad"/><rect width="6.688" height="7.905" transform="translate(1093.19 3488.313) rotate(-74.728)" fill="#72edad"/><rect width="6.688" height="7.905" transform="translate(1080.019 3484.665) rotate(-74.728)" fill="#72edad"/><rect width="6.688" height="7.905" transform="translate(1064.084 3491.716) rotate(-74.728)" fill="#72edad"/><rect width="6.688" height="7.905" transform="translate(1116.557 3505.933) rotate(-74.728)" fill="#72edad"/><rect width="6.688" height="7.905" transform="translate(1103.386 3502.284) rotate(-74.728)" fill="#72edad"/><rect width="6.688" height="7.905" transform="matrix(0.264, -0.965, 0.965, 0.264, 1090.24, 3498.606)" fill="#72edad"/><rect width="6.688" height="7.905" transform="translate(1076.963 3495.284) rotate(-74.728)" fill="#72edad"/><rect width="6.688" height="7.905" transform="matrix(0.264, -0.965, 0.965, 0.264, 1061.136, 3502.008)" fill="#72edad"/><rect width="6.688" height="7.905" transform="translate(1113.502 3516.549) rotate(-74.728)" fill="#72edad"/><rect width="6.688" height="7.905" transform="matrix(0.264, -0.965, 0.965, 0.264, 1100.367, 3512.882)" fill="#72edad"/><rect width="6.688" height="7.905" transform="translate(1087.453 3509.335) rotate(-74.728)" fill="#72edad"/><rect width="6.688" height="7.905" transform="translate(1074.281 3505.687) rotate(-74.728)" fill="#72edad"/><path d="M235.779,294.475l6.08,31.922a5.1,5.1,0,0,0,5.776,3.952l66.581-13.073a5.1,5.1,0,0,0,3.952-5.776l-6.081-31.922a5.1,5.1,0,0,0-5.776-3.952L239.731,289A4.579,4.579,0,0,0,235.779,294.475Z" transform="translate(360.645 3160.773)" fill="#ffc550"/><path d="M235.779,294.475l.3,1.824,36.483,13.985a10.855,10.855,0,0,0,11.249-2.128L312.392,281.4l-.3-1.824a5.1,5.1,0,0,0-5.776-3.952L239.731,289A4.579,4.579,0,0,0,235.779,294.475Z" transform="translate(360.645 3160.773)" fill="#ffe1ab"/><path d="M234.939,303.828a12.223,12.223,0,1,0,9.729-14.289A12.479,12.479,0,0,0,234.939,303.828Z" transform="translate(358.748 3188.814)" fill="#4c8"/><path d="M420.716,311.041c0-2.432-.912-5.776-3.04-9.729-5.472-11.857-17.633-29.186-25.538-40.131l-.912-.912a5.157,5.157,0,0,0-4.864-2.736H372.376a42.624,42.624,0,0,0,.3-10.641,26.009,26.009,0,0,0,10.337-10.337,3.437,3.437,0,0,0,3.344-.608,8.711,8.711,0,0,0,3.04-6.688,9.187,9.187,0,0,0-1.52-4.864,12.2,12.2,0,0,0,.912-4.56c.3-5.472,0-11.553-6.992-14.289,2.736-4.256-7.9-13.377-16.721-10.337-20.37,6.993-20.673-.608-20.673-.608-8.817,2.736-9.729,10.641-5.776,14.289-2.432,3.04-2.432,6.992-2.128,10.641,0,.912.3,1.52.3,2.736,0,.912-.3,1.824-.3,2.736a24.23,24.23,0,0,0,20.673,24.018c0,3.04,0,6.08-.608,8.209H340.758a5.319,5.319,0,0,0-4.256,2.128,6.633,6.633,0,0,0-1.52,1.216c-8.513,10.337-28.578,34.962-30.1,43.779-1.216,6.688,6.688,23.714,14.289,38.611-.912.608-1.52,1.216-2.128,1.216a6.442,6.442,0,0,0-3.952,8.209,6.2,6.2,0,0,0,6.08,4.256,5.173,5.173,0,0,0,2.128-.3,21.869,21.869,0,0,0,6.384-3.648c-.3,5.776-.3,9.121-.3,9.121a288.065,288.065,0,0,0,.608,34.963c.3,6.992,2.432,59.892,5.472,80.262,1.52,9.121,3.952,25.234,6.08,40.435l21.89-1.216c-2.432-15.809-5.168-33.138-6.384-42.563-2.736-17.937-4.864-65.669-5.472-76.309H359.3c.3,8.817,2.736,59.892,5.472,79.654,1.216,8.513,3.648,23.714,6.081,38.611l21.89-1.216c-2.432-15.505-4.864-31.618-6.384-40.739-3.04-20.065-5.472-77.83-5.472-78.438v-1.216c1.824-5.168,3.952-16.113,1.216-32.53a68.768,68.768,0,0,1-.3-8.209,23.76,23.76,0,0,0,6.08,3.344,5.173,5.173,0,0,0,2.128.3,6.612,6.612,0,0,0,6.081-4.256,6.442,6.442,0,0,0-3.952-8.209h-.3c3.648-3.344,6.688-6.384,9.729-9.121C420.412,318.033,420.716,312.865,420.716,311.041Zm-91.511,22.194c-5.472-11.249-10.641-22.8-10.945-26.146.912-3.04,6.992-11.857,14.289-21.586C331.333,300.1,330.117,318.337,329.205,333.234Zm53.812,3.344c1.216-18.241,3.952-40.131,6.384-56.548,9.121,13.073,17.025,26.146,17.937,30.4C405.515,314.385,394.266,325.938,383.017,336.579Z" transform="translate(501.619 2995.54)" fill="rgba(55,94,130,0.37)"/><path d="M421.169,360.352a39.2,39.2,0,0,1-3.648-1.824c4.864-7.3,13.377-23.714,10.945-42.563-1.52-13.377-22.5-36.787-24.93-39.523a4.428,4.428,0,0,0-3.648-1.52,3.856,3.856,0,0,0-1.824-.3H380.734a47.072,47.072,0,0,1,.3-6.688A24.8,24.8,0,0,0,405.056,243.3s6.992-19.457-18.241-28.274l-2.736-.912a11.819,11.819,0,0,0-4.256-5.776c-9.729-8.817-27.97-3.648-31.922,9.425-3.648,12.161.912,16.721,5.472,24.93a7.672,7.672,0,0,0-1.824,5.168,8.743,8.743,0,0,0,2.736,6.08.942.942,0,0,0,.608.3c-1.216,6.993-5.472,13.681-5.472,13.681a42.11,42.11,0,0,0,15.505-4.864,28.6,28.6,0,0,0,6.689,3.648,63.753,63.753,0,0,0-.3,8.209H360.973a5.035,5.035,0,0,0-3.648,1.52l-.3.3-.3.3a.3.3,0,0,1-.3.3c-.3.608-1.824,2.736-3.648,5.472-5.168,8.209-14.593,23.41-15.809,33.138a5.936,5.936,0,0,1-.3,2.128c-1.216,18.545,12.465,34.355,20.065,41.651a17.926,17.926,0,0,1-2.432,1.216,4.715,4.715,0,0,0,1.824,9.121,3.856,3.856,0,0,0,1.824-.3,5.134,5.134,0,0,0,1.52-.608c-5.472,26.146,3.344,66.885,3.344,66.885h.912c-.608,9.121-1.216,17.329-1.824,22.8-1.216,8.209-4.256,22.5-7.3,36.483l16.721-.912c2.736-13.073,5.168-25.538,6.384-33.138.912-6.081,1.52-15.2,2.128-25.234h10.337c-.608,9.121-1.52,17.329-2.432,22.8-1.216,7.9-3.344,21.282-5.472,34.962l16.721-.912c1.824-12.465,3.648-24.322,4.864-31.618.912-6.081,1.824-15.2,2.432-25.234h1.52c1.52-6.992,3.04-48.035,3.648-69.013a36.441,36.441,0,0,0,5.776,2.736,3.855,3.855,0,0,0,1.824.3,5.322,5.322,0,0,0,4.56-3.04C424.817,364,423.6,361.264,421.169,360.352Zm-55.94-6.688c-6.08-5.472-20.673-20.673-18.545-37.091.912-6.08,6.08-15.809,10.945-24.018C361.581,312.316,366.749,335.118,365.229,353.663Zm41.347-58.676c6.08,8.209,11.857,17.025,12.465,21.89,1.52,13.073-3.04,24.93-7.3,32.226C411.137,338.766,409.312,313.836,406.576,294.987Z" transform="translate(566.53 3014.635)" fill="rgba(55,94,130,0.37)"/><path d="M303.264,334.629H506.351a4.8,4.8,0,0,0,4.864-4.864h0a4.8,4.8,0,0,0-4.864-4.864H303.264a4.8,4.8,0,0,0-4.864,4.864h0A5.224,5.224,0,0,0,303.264,334.629Z" transform="translate(488.645 3261.381)" fill="#e2e2e2"/><path d="M337.261,336.182l-2.736-20.065L325.1,314.9l4.56,20.977Z" transform="translate(543.119 3240.979)" fill="#ffaf84"/><path d="M337.584,321.768a2.322,2.322,0,0,0-1.52.608c-3.344,2.736-6.992,6.08-12.769,7.6-5.168,1.52-3.04,3.952,2.128,3.952,7.6,0,10.641-.3,13.985-.3s1.216.3,9.425.3c3.952,0,2.432-7.6.608-11.857a2.509,2.509,0,0,0-3.04-1.52Z" transform="translate(533.372 3252.352)" fill="#4c8"/><path d="M323.961,336.182l-2.736-20.065L311.8,314.9l4.56,20.977Z" transform="translate(515.984 3240.979)" fill="#ffaf84"/><path d="M328.65,321.768a2.322,2.322,0,0,0-1.52.608c-3.344,2.736-13.073,7.6-18.241,8.209-5.472.912-5.776,3.344,1.824,3.344s13.073-.608,16.721-.608c3.344,0,2.432.608,10.945.608,6.384,0,4.256-8.209,2.128-11.857a2.509,2.509,0,0,0-3.04-1.52Z" transform="translate(501.87 3252.352)" fill="#4c8"/><path d="M320.363,190.535c5.472-.912,16.113,10.337,3.04,27.058-9.425,11.857-14.289-3.344-14.9-10.033C307.9,200.567,308.506,192.663,320.363,190.535Z" transform="translate(508.942 2987.141)" fill="#e65234"/><path d="M341.076,212.273c-3.04-2.736-7.6-2.128-10.337.912-9.729,11.553-32.226,39.523-34.051,49.556-1.52,8.209,10.337,30.4,20.673,47.731L326.483,305c-11.857-17.025-12.465-32.53-15.2-39.827,1.824-5.472,17.937-23.106,31.618-39.523C345.636,222.305,344.42,214.7,341.076,212.273Z" transform="translate(484.884 3028.032)" fill="#0957ea"/><path d="M306.706,262.381a10.129,10.129,0,0,1-6.384-5.776c-3.344-8.513,1.824-6.08,5.776-7.3,1.824-.608,4.56-5.168,5.776-6.384,2.736-3.04,6.688-3.648,9.729-1.216,3.04,2.736,2.432,6.688.912,10.337-.912,2.128-2.432,6.688-8.209,9.729C311.266,262.989,309.746,263.293,306.706,262.381Z" transform="translate(490.372 3088.588)" fill="#ffaf84"/><path d="M339.316,219.285c0,6.384-.912,13.985-4.256,19.457-4.56,6.992-5.472,8.513-5.472,8.817a8.668,8.668,0,0,1-7.6,4.256,8.58,8.58,0,0,1-4.56-1.216,8.768,8.768,0,0,1-3.04-11.857s.608-1.216,5.776-9.121c.912-1.216,1.216-3.952,1.52-6.688a70.331,70.331,0,0,0-.3-11.553,8.6,8.6,0,0,1,17.025-2.432A53.785,53.785,0,0,1,339.316,219.285Z" transform="translate(518.87 3009.771)" fill="#ffaf84"/><path d="M377.561,217.4c-4.256,24.626-12.769,86.342-10.945,111.272H304.9s3.648-91.511,9.729-114.008a5.859,5.859,0,0,1,5.776-4.56h51.076A6.244,6.244,0,0,1,377.561,217.4Z" transform="translate(501.906 3027.164)" fill="#0957ea"/><path d="M364.062,289.231s7.6-13.681,2.736-40.131H305.082a379.685,379.685,0,0,0,.608,40.131Z" transform="translate(501.724 3106.733)" fill="#0b0b0b"/><path d="M350.471,360.357c-3.344-22.5-2.432-89.99-3.952-97.591-1.216-6.689-11.553-6.384-18.545-6.08-6.688.3-13.073,9.425-13.073,16.113,0,2.736,8.209,67.189,11.857,91.207,2.736,17.329,13.985,62.629,18.241,82.694l15.505-1.824C357.767,424.809,352.9,377.686,350.471,360.357Z" transform="translate(522.309 3121.949)" fill="#0b0b0b"/><path d="M335.814,358.037c-1.824-23.106-2.736-88.774-2.736-89.382-.3-6.688-9.425-11.249-16.113-10.945a12.464,12.464,0,0,0-11.857,12.769c0,2.736,2.736,67.189,6.384,91.207,2.736,17.329,8.817,64.149,13.985,84.518l13.985-1.824C336.118,424.01,337.03,375.366,335.814,358.037Z" transform="translate(502.307 3124.269)" fill="#0b0b0b"/><path d="M339.713,213.513a7.319,7.319,0,0,0-10.337-1.52c-3.344,2.432-4.256,8.817-1.824,12.161,13.073,17.937,26.754,39.219,28.274,45.3-13.073,10.641-6.992,17.633-32.226,34.659l6.384,8.209c35.875-30.1,41.347-40.131,41.347-42.867C371.94,259.42,351.57,230.234,339.713,213.513Z" transform="translate(540.059 3028.008)" fill="#0957ea"/><path d="M333.889,219.285a26.838,26.838,0,0,1-13.985,3.952,14.8,14.8,0,0,1-3.648-.3,70.331,70.331,0,0,0-.3-11.553,8.6,8.6,0,0,1,17.025-2.432A53.774,53.774,0,0,1,333.889,219.285Z" transform="translate(524.297 3009.771)" fill="#ed8c62"/><path d="M308.8,217.07c0,15.2,11.249,28.274,26.45,28.274,13.073,0,27.666-13.377,27.666-28.578A27.767,27.767,0,0,0,335.25,189.1C320.049,189.1,308.8,201.869,308.8,217.07Z" transform="translate(509.863 2984.32)" fill="#ffaf84"/><path d="M338.088,261.63a9.719,9.719,0,0,1-5.776-2.128c-3.344-2.128-5.776-3.952-7.9-7.3a7.18,7.18,0,0,1,1.216-10.033c3.04-2.736,7.6-2.128,10.337.912,1.216,1.52,3.344,4.864,5.472,5.472,5.776,1.52,8.209,3.344,6.08,6.688C345.081,257.982,340.824,261.63,338.088,261.63Z" transform="translate(538.644 3089.034)" fill="#ffaf84"/><path d="M330.178,190.53c-5.472-.912-17.329,12.161-1.216,26.146,8.817,7.6,12.465-2.432,13.073-9.121C342.339,200.563,341.731,192.658,330.178,190.53Z" transform="translate(534.393 2987.146)" fill="#ff6748"/><path d="M340.475,187.571c10.641-3.648,23.714,7.9,18.241,12.465-2.432,1.824-2.432,1.52-8.513,3.344s-31.618,3.952-37.7.912-6.384-13.985,4.864-17.329C317.37,186.659,317.674,195.475,340.475,187.571Z" transform="translate(508.894 2979.768)" fill="#ff6748"/><path d="M334.633,205.314a10.147,10.147,0,0,1-3.648,7.6,3.906,3.906,0,0,1-6.384-3.04v-9.121a3.906,3.906,0,0,1,6.384-3.04A9.224,9.224,0,0,1,334.633,205.314Z" transform="translate(542.099 3000.028)" fill="#ffaf84"/><path d="M313.886,210.1c-1.52,4.864,3.344,7.9,11.553,6.688A42.118,42.118,0,0,0,342.16,210.1Z" transform="translate(519.675 3027.164)" fill="#ffaf84"/><path d="M338.752,460.483c0-.6-10.454-68.009-11.906-89.784-1.742-22.67-4.646-80.537-4.646-89.486V248.7h1.452v32.513c0,8.949,2.9,66.518,4.646,89.486,1.452,21.775,11.906,88.889,11.906,89.486Z" transform="translate(537.202 3107.133)" fill="#2a2a2a"/><rect width="1.52" height="40.651" transform="translate(835.689 3355.616)" fill="#2a2a2a"/><path d="M319.7,280.622a7.392,7.392,0,0,1-7.6-7.322V248.7h1.52v24.6a5.99,5.99,0,0,0,6.08,5.857Z" transform="translate(516.596 3107.133)" fill="#2a2a2a"/><path d="M381.137,202.127c-10.945-9.729-31.618-3.952-35.874,10.641s1.824,19.457,6.992,29.794c5.168,10.641-5.168,26.45-5.168,26.45s32.226-2.128,31.922-30.4C379.009,220.977,394.514,213.984,381.137,202.127Z" transform="translate(581.329 3001.086)" fill="#370bd8"/><path d="M369.577,261.9a4.9,4.9,0,0,1-2.736.912,5.016,5.016,0,0,1-4.56-2.736s-.912-1.52-5.472-8.817c-3.648-6.08-3.952-15.505-3.648-21.89.3-3.344.608-6.08.608-6.688a5.61,5.61,0,0,1,6.08-4.56c3.04.3,4.864,3.04,4.56,6.08a51.255,51.255,0,0,0-.608,7.6c0,5.168.3,10.641,2.128,13.681,4.864,7.9,5.776,9.121,5.776,9.121A5.828,5.828,0,0,1,369.577,261.9Z" transform="translate(600.185 3043.464)" fill="#ffaf84"/><path d="M379.938,268.629c0,2.128-.912,41.043-2.736,70.229v.912c-.608,8.209-1.52,16.113-2.432,21.282-3.648,24.018-20.977,88.774-21.586,91.511l-6.385-.608c.3-.608.608-65.669,8.209-93.943,1.216-4.56,1.216-10.641,1.824-17.937v-.912c1.824-28.578,1.824-70.533,2.128-71.141a8.958,8.958,0,0,1,9.121-9.121h0C372.946,259.2,379.938,263.764,379.938,268.629Z" transform="translate(587.392 3126.727)" fill="#ffaf84"/><path d="M389.538,268.737c0,2.128-1.824,41.347-3.952,70.229v.3c-.608,8.513-1.52,16.113-2.432,21.586-2.736,18.545-17.025,71.749-20.065,90.9l-6.689-1.52c0-54.724,5.168-77.221,8.209-90.295,1.216-4.56.608-13.377.3-20.673v-.608c-.912-30.4.608-54.42.3-69.317.3-5.168,10.337-10.641,15.2-10.337A9.683,9.683,0,0,1,389.538,268.737Z" transform="translate(606.978 3126.923)" fill="#ffaf84"/><path d="M364.249,224.2a51.243,51.243,0,0,0-.608,7.6A23.85,23.85,0,0,1,353,229.371c.3-3.344.608-6.08.608-6.688a5.61,5.61,0,0,1,6.08-4.56A5.432,5.432,0,0,1,364.249,224.2Z" transform="translate(600.041 3043.464)" fill="#ed8c62"/><path d="M400.4,230.67c-2.432,15.505-10.337,30.1-25.842,30.1S347.8,247.087,347.8,231.582,358.441,202.7,373.946,202.7C388.843,202.7,402.828,215.469,400.4,230.67Z" transform="translate(589.432 3012.067)" fill="#ffaf84"/><path d="M391.345,320.233c-2.736-.912-4.864.912-7.9-3.344,10.033-16.721,18.241-25.538,15.809-47.123-1.824-15.2-25.234-41.347-27.97-44.387a5.379,5.379,0,0,0-7.9,7.3c9.121,10.337,24.018,29.794,25.234,38.611,3.04,24.018-13.377,44.387-13.377,44.691a.3.3,0,0,1-.3.3c0,.3-.3.3-.3.608a.941.941,0,0,1-.3.608c0,.3,0,.3-.3.608v3.648c0,.3,0,.3.3.608,0,.3,0,.3.3.608l.3.3c0,.3.3.3.3.608l.3.3.3.3.3.3h0a35.517,35.517,0,0,0,8.513,5.472,4.507,4.507,0,0,0,2.128.3c2.128,0,6.08-1.824,6.992-3.952C394.385,322.362,394.385,321.145,391.345,320.233Z" transform="translate(618.245 3054.753)" fill="#ffaf84"/><path d="M373.206,268.425c0,2.128-.912,41.043-2.736,70.229v.912l-20.37.608v-.912c1.824-28.578,1.824-70.533,2.128-71.141A8.958,8.958,0,0,1,361.349,259h0C366.213,259,373.206,263.56,373.206,268.425Z" transform="translate(594.125 3126.931)" fill="#ed8c62"/><path d="M383.82,268.533c0,2.128-1.824,41.347-3.952,70.229l-20.37.608v-.608c-.912-30.4.608-54.42.3-69.317.3-5.168,10.337-10.641,15.2-10.337C379.868,259.108,383.82,263.364,383.82,268.533Z" transform="translate(612.696 3127.127)" fill="#ed8c62"/><path d="M353.716,344.511S339.427,277.322,356.149,253h52.9s-1.824,80.566-4.256,91.511Z" transform="translate(589.9 3114.689)" fill="#0957ea"/><path d="M410.233,309.738a13.792,13.792,0,0,0,.3,3.04h-52.9a10.344,10.344,0,0,1,.3-3.04v-.912c0-3.648,0-7.6-.3-11.249v-1.216c0-1.52-.3-3.04-.3-4.256v-1.216c-.3-3.648-.912-7.3-1.52-10.945v-.912a23.471,23.471,0,0,1-.608-4.56v-.912c-.608-3.952-1.216-7.6-2.128-11.553h0c-.3-1.824-.608-3.344-.912-5.168v-.3c-.608-3.648-1.52-7.3-2.128-10.641,0-.608-.3-.912-.3-1.52-.3-1.216-.3-2.432-.608-3.344,0-.608-.3-1.52-.3-2.128-.608-2.736-.912-5.472-1.52-7.9v-.608a7.223,7.223,0,0,1,.912-3.648,6.385,6.385,0,0,1,5.472-3.04h41.955a6.793,6.793,0,0,1,5.472,3.04,2.322,2.322,0,0,1,.608,1.52c.3.912.3,1.52.608,2.432.608,2.128.912,4.256,1.52,6.993a14.2,14.2,0,0,1,3.04,1.52,10.487,10.487,0,0,1,2.736,2.432,6.309,6.309,0,0,1,1.824,3.04,4.321,4.321,0,0,1,.608,1.824,8.416,8.416,0,0,1,.3,2.736,13.3,13.3,0,0,1-2.432,7.6l-.3.3a9.255,9.255,0,0,1-2.432,2.432c0,.912.3,1.824.3,2.736v.3c.3,3.648.912,7.6,1.216,11.249v.912c0,1.52.3,3.04.3,4.256v1.216c.3,3.648.608,7.3.912,10.641v1.52c0,1.216.3,2.736.3,3.952v1.824c.3,4.256.608,7.9.608,10.641C410.233,308.826,410.233,309.434,410.233,309.738Z" transform="translate(588.412 3054.911)" fill="#0b0b0b"/><path d="M376.636,321.083c0-.3.3-.3.3-.608v-2.128c0-.3,0-.608-.3-.608v-.3c0-.3-.3-.3-.3-.608a.3.3,0,0,0-.3-.3l-.3-.3-.3-.3h0l-.3-.3-.3-.3c-.3-.3-24.322-20.673-23.714-44.387.3-10.337,14.593-31.314,19.761-38.307a5.443,5.443,0,1,0-8.817-6.384c-2.128,2.736-19.761,28.578-21.586,43.475-2.736,21.89,19.153,39.523,27.97,48.036-3.648,3.344-6.08,2.128-8.209,2.432-3.04.3-3.04,2.736-2.432,5.472a6.029,6.029,0,0,0,1.824,3.952c1.824,2.432,4.56,1.216,5.472.912a46.833,46.833,0,0,0,10.337-6.689h0a.3.3,0,0,0,.3-.3l.608-.608h0c-.3-1.216,0-1.52.3-1.824Z" transform="translate(573.973 3055.423)" fill="#ffaf84"/><path d="M356.281,221.938c11.249,6.384,37.7,4.864,42.563,13.073,0,0,7.9-21.89-20.37-31.922C352.329,193.664,340.472,213.121,356.281,221.938Z" transform="translate(592.199 3007.726)" fill="#40f"/><path d="M364.033,204.493c7.3,2.736-3.344,26.45-14.9,26.45C343.968,230.943,343.36,197.2,364.033,204.493Z" transform="translate(585.968 3013.618)" fill="#40f"/><path d="M346.1,218.607a9.9,9.9,0,0,0,3.04,6.992,3.561,3.561,0,0,0,5.776-2.736v-8.209c0-3.04-3.648-4.864-5.776-2.736A8.711,8.711,0,0,0,346.1,218.607Z" transform="translate(585.964 3028.993)" fill="#ffaf84"/><path d="M353.62,329.353l-1.52-.912L391.623,257.3l1.216.608Z" transform="translate(598.205 3123.462)" fill="#0092ff"/><path d="M360.12,322.724l-1.52-.3,21.281-62.02,1.216.3Z" transform="translate(611.466 3129.787)" fill="#0092ff"/><path d="M351.7,223.5a33.424,33.424,0,0,0,4.56,4.864c6.08,4.56,13.681,6.08,16.417,3.344,1.824-1.824,1.52-4.864-.3-7.9H351.7Z" transform="translate(597.389 3054.503)" fill="#ffaf84"/><path d="M355.991,322.816a2.305,2.305,0,0,1,1.216.608c2.432,1.824,5.168,4.56,9.121,5.472s2.432,2.736-1.52,2.736c-5.472,0-7.6-.3-10.337,0h-6.992c-2.736,0-1.824-5.472-.3-8.817A2.036,2.036,0,0,1,349.3,321.6Z" transform="translate(585.193 3254.648)" fill="#332f4f"/><path d="M365.714,322.612a2.3,2.3,0,0,1,1.216.608c2.432,1.824,9.425,5.472,13.073,6.081,3.952.608,4.256,2.432-1.52,2.432-5.472,0-9.425-.608-12.161-.3-2.432,0-1.824.3-7.9.3-4.56,0-3.344-5.776-1.52-8.817a2.3,2.3,0,0,1,2.128-1.216Z" transform="translate(604.656 3254.853)" fill="#332f4f"/></g></g></svg>