<svg xmlns="http://www.w3.org/2000/svg" xmlns:xlink="http://www.w3.org/1999/xlink" width="456.153" height="442.355" viewBox="0 0 456.153 442.355"><defs><linearGradient id="a" x1="0.431" y1="0.242" x2="0.431" y2="1.663" gradientUnits="objectBoundingBox"><stop offset="0" stop-color="#fff"/><stop offset="1"/></linearGradient><linearGradient id="b" x1="0.5" y1="0.793" x2="0.5" y2="-0.088" gradientUnits="objectBoundingBox"><stop offset="0" stop-color="#fff"/><stop offset="1" stop-color="#392ecf"/></linearGradient><linearGradient id="c" x1="-1.584" y1="0.794" x2="-1.584" y2="-0.088" xlink:href="#b"/><linearGradient id="d" x1="0.463" y1="0.243" x2="0.463" y2="1.666" xlink:href="#a"/><linearGradient id="e" y1="0.501" x2="0.998" y2="0.501" gradientUnits="objectBoundingBox"><stop offset="0" stop-color="#ffe7db"/><stop offset="0.326" stop-color="#ffe4d9"/><stop offset="0.557" stop-color="#ffdbd1"/><stop offset="0.759" stop-color="#ffcbc5"/><stop offset="0.943" stop-color="#ffb5b4"/><stop offset="1" stop-color="#ffadad"/></linearGradient><linearGradient id="f" x1="0" y1="0.501" x2="0.999" y2="0.501" xlink:href="#e"/><linearGradient id="g" x1="0.002" y1="0.5" x2="1" y2="0.5" xlink:href="#b"/></defs><g transform="translate(-879.075 -193.239)"><ellipse cx="43.643" cy="8.57" rx="43.643" ry="8.57" transform="translate(962.134 558.201)" fill="#6a64ff" opacity="0.34"/><ellipse cx="43.643" cy="8.57" rx="43.643" ry="8.57" transform="translate(1128.53 558.201)" fill="#6a64ff" opacity="0.34"/><path d="M428.464,136.988c121.321-8.3,177.523,53.3,208.838,135.838,31.108,82.54,77.355,110.952,45.418,205.935S535.683,586.394,490.68,575.195,399.016,535.377,343.021,513.6c-83.369-32.145-103.9-74.452-105.56-116.136-2.281-58.9,28.827-65.534,38.781-130.239C288.064,190.079,333.482,143.417,428.464,136.988Z" transform="translate(641.732 57)" fill="#d5498f"/><path d="M254.433,198.4c-37.841,60.783-6.856,137.917,34.281,177.6,36.655,35.468,101.13,59.992,136.73,37.314,25.975-16.613,19.514-47.467,58.938-78.715,25.579-20.305,38.237-15.031,46.543-29.4,19.91-34.413-21.492-117.084-88.736-148.069C385.889,131.152,294.647,133.657,254.433,198.4Z" transform="translate(715.612 132.625)" fill="#f065a6" opacity="0.34"/><path d="M360.8,251.2H286.3l8.834-47.2h74.5Z" transform="translate(731.211 152.468)" opacity="0.91" fill="url(#a)"/><path d="M346.319,213.823H324.3l.132-.923h22.151Z" transform="translate(743.315 155.303)" fill="#9a9fb3"/><path d="M345.851,216.723H323.7l.264-.923h22.019Z" transform="translate(743.124 156.227)" fill="#9a9fb3"/><path d="M345.219,219.623H323.2l.132-.923h22.151Z" transform="translate(742.965 157.151)" fill="#9a9fb3"/><path d="M344.751,222.523H322.6l.264-.923h22.019Z" transform="translate(742.774 158.074)" fill="#9a9fb3"/><path d="M344.119,225.555H322.1l.132-1.055h22.151Z" transform="translate(742.614 158.998)" fill="#9a9fb3"/><path d="M339.384,232.123H332l.264-.923h7.252Z" transform="translate(745.768 161.132)" fill="#9a9fb3"/><path d="M296.484,206.355a1.4,1.4,0,0,1-1.187,1.055.845.845,0,0,1-.791-1.055,1.4,1.4,0,0,1,1.187-1.055A.845.845,0,0,1,296.484,206.355Z" transform="translate(733.817 152.882)" fill="#f88"/><path d="M299.984,206.355a1.4,1.4,0,0,1-1.187,1.055.845.845,0,0,1-.791-1.055,1.4,1.4,0,0,1,1.187-1.055A.845.845,0,0,1,299.984,206.355Z" transform="translate(734.932 152.882)" fill="#f88"/><path d="M303.584,206.355a1.4,1.4,0,0,1-1.187,1.055.845.845,0,0,1-.791-1.055,1.4,1.4,0,0,1,1.187-1.055A.845.845,0,0,1,303.584,206.355Z" transform="translate(736.079 152.882)" fill="#f88"/><ellipse cx="15.954" cy="13.185" rx="15.954" ry="13.185" transform="matrix(0.739, -0.673, 0.673, 0.739, 1025.954, 380.308)" fill="#4d70ff"/><path d="M315.112,220.01a6.312,6.312,0,0,1-5.933,5.01,3.963,3.963,0,0,1-3.956-5.01,6.312,6.312,0,0,1,5.933-5.01A4.009,4.009,0,0,1,315.112,220.01Z" transform="translate(737.208 155.972)" fill="#fff"/><path d="M320.69,235.071c-1.187,6.329-7.252,11.471-13.581,11.471s-10.548-5.142-9.361-11.471S305,223.6,311.329,223.6,321.877,228.742,320.69,235.071Z" transform="translate(734.794 158.711)" fill="#fff"/><ellipse cx="15.954" cy="13.185" rx="15.954" ry="13.185" transform="matrix(0.739, -0.673, 0.673, 0.739, 1025.954, 380.308)"/><path d="M360.8,239.9H286.3l8.834,47.2h74.5Z" transform="translate(731.211 163.903)" opacity="0.28" fill="url(#b)"/><path d="M357.775,250h68.958l-8.175,43.643H349.6Z" transform="translate(751.374 167.12)" opacity="0.28" fill="url(#c)"/><path d="M281.323,351.8l-.923,14.5h26.107s-10.68-7.12-15.427-9.361l-.527-5.142Z" transform="translate(729.332 199.545)" fill="#f88"/><path d="M293.061,264l1.714,119.721H284.49s-11.339-46.939-5.8-60.52L268.8,264.132h24.261Z" transform="translate(725.638 171.579)" fill="#0092ff"/><path d="M293.061,264H268.8l9.889,59.069c-1.978,4.747-1.846,13.449-.923,22.81l16.745,20.305Z" transform="translate(725.638 171.579)" fill="#0957ea" opacity="0.2"/><path d="M261.156,353.2,257.2,367.7h28.48s-12-7.12-16.745-9.362l.923-5.142Z" transform="translate(721.943 199.991)" fill="#f88"/><path d="M296.714,262.9l-10.153,59.992-17.009,61.179H259.4s3.3-58.674,13.844-64.871l-8.307-56.3h31.776Z" transform="translate(722.643 171.229)" fill="#0092ff"/><path d="M294.717,266.987l.659-4.087H263.6l.659,4.879,30.59,3.956Z" transform="translate(723.981 171.229)" opacity="0.2"/><path d="M300.2,234.526s6.329-10.284,16.218-12.526l-3.824,4.615s1.846,4.878-.527,7.252A10.661,10.661,0,0,1,306,236.5l-2.637,2.9Z" transform="translate(735.639 158.202)" fill="#ffadad"/><path d="M282.028,225.2l8.7,17.668L307.739,231.4l4.219,6.461s-14.767,27.821-21.228,25.711c-6.461-1.978-12.13-16.745-12.13-16.745Z" transform="translate(728.759 159.221)" fill="#fff"/><path d="M290.63,242.868l-8.7-17.668L278.5,246.955s5.67,14.636,12.13,16.745a1,1,0,0,1,.527.132l7.779-26.5Z" transform="translate(728.727 159.221)" opacity="0.2"/><path d="M292.333,194.884s1.055,8.966,1.978,11.207h-2.9s.264,8.7-1.582,9.757c-1.187.791-4.879,0-5.8,1.055s-2.11,8.175-2.11,8.175l-11.339-.923L271.764,214s-6.329-7.516-4.483-16.877C269.523,187.764,290.619,186.182,292.333,194.884Z" transform="translate(725.046 147.74)" fill="#ffadad"/><path d="M277.666,205l-8.966-.4a26.977,26.977,0,0,0,2.769,4.615l-1.187,10.153,11.339.923s1.187-7.252,2.11-8.175c.264-.4,1.055-.527,1.846-.527C281.226,210.138,277.27,205.259,277.666,205Z" transform="translate(725.606 152.66)" opacity="0.2"/><path d="M293.823,199.345s-2.373,1.45-7.12-1.714c0,0-3.164,5.8-6.065,5.01,0,0-.132,4.087-.791,4.351-.527.264-1.846-3.56-3.033-3.824s-2.373.923-1.187,4.615c1.319,3.56,3.56,3.56,3.56,3.56l-6.2,4.087s-4.879-1.582-5.8-5.67c0,0-6.2-6.065-2.505-10.284,0,0-4.087-3.428,5.538-7.779,0,0,2.241-8.307,6.724-4.483,0,0,8.307-6.2,10.416-.659,0,0,10.68-.923,11.339,4.878s-1.846,7.12-1.846,7.12.527,4.747-2.373,5.01Z" transform="translate(723.953 146.179)" fill="#212226"/><path d="M265.417,228a6.2,6.2,0,0,1-4.615-7.384c.923-6.065,8.834-8.7,25.052-5.01,1.846.4,3.428,3.56,2.11,6.329,0,0,5.142,12.79,6.856,23.206,1.582,10.416,2.505,21.36,4.219,26.5s.264,10.812-4.483,10.812H265.021c-5.8,0-6.593-8.175-4.219-16.613C262.912,257.406,266.34,234.069,265.417,228Z" transform="translate(722.692 155.626)" fill="#2a2a2a"/><path d="M279.109,222.127c9.23,1.978,2.769,20.173.923,25.447s-3.824,9.889-.923,13.976a60.907,60.907,0,0,0,8.043,8.57l-3.428,7.252s-19.25-2.505-23.733-8.175c-4.615-5.67-1.978-18.327,1.978-27.03S272.253,220.677,279.109,222.127Z" transform="translate(722.053 158.206)" fill="#fff"/><path d="M277.064,267.676h0c-.264-.132-.264-.4-.264-.659l4.747-10.153c.132-.264.4-.264.659-.264h0c.264.132.264.4.264.659l-4.747,10.153A.482.482,0,0,1,277.064,267.676Z" transform="translate(728.186 169.222)" fill="#a67070"/><path d="M398.973,255.8l-3.428,4.879s-3.824,52.872-2.9,68.035c1.055,15.163,5.274,59.861,5.274,59.861L378.8,397.8l27.953-1.45s-2.769-5.274-.923-19.25c3.033-22.019,1.978-35.468-1.45-46.28,0,0,11.339-59.992,14.9-73.046Z" transform="translate(760.674 168.967)" fill="#0092ff"/><path d="M410.544,266.3l-17.273,67.112c1.582,18.855,4.747,51.949,4.747,51.949l-19.118,9.23,27.953-1.45s-2.769-5.274-.923-19.25c3.033-22.019,1.978-35.468-1.45-46.28,0,0,5.406-28.744,9.889-50.763Z" transform="translate(760.706 172.312)" fill="#0957ea" opacity="0.2"/><path d="M407.116,339.9H395.909c1.055,12,2.11,22.019,2.11,22.019l-19.118,9.23,27.953-1.45s-2.769-5.274-.923-19.25C406.457,346.624,406.853,343.064,407.116,339.9Z" transform="translate(760.706 195.755)" fill="#ffadad"/><path d="M401,254.4s5.8,57.883,7.779,72.914,13.053,55.246,13.317,59.333-6.461,18.327-6.461,18.327,14.5-9.625,18.064-14.24c0,0-5.67-5.538-5.406-10.812.132-5.274-1.846-42.061-7.384-52.609,0,0,3.428-35.864,4.351-43.115.923-7.384,1.187-25.052-1.978-29.8H401Z" transform="translate(767.745 168.522)" fill="#0092ff"/><path d="M426.372,254.4H404.09s.132,1.055.264,2.769l-9.361-.923-3.428,4.879s-.132,1.45-.264,4.087c12.394,2.769,29.535.923,37.578-.264C428.482,260.333,427.691,256.246,426.372,254.4Z" transform="translate(764.656 168.522)" opacity="0.2"/><path d="M406.374,182.7c9.493-.264,10.68,8.307,12.13,17.273s2.505,12.262,5.8,16.481,1.187,7.779,4.219,12,14.108,19.514.791,25.315-21.755.527-25.579-7.252c-3.956-7.911-5.538-12.79-10.284-16.613s-5.01-11.339-1.846-16.613c3.033-5.274,2.373-9.493,1.319-15.558C391.607,191.535,395.562,182.965,406.374,182.7Z" transform="translate(764.085 145.683)" fill="#402c2c"/><path d="M412.49,226.262c.4-8.966-3.033-10.944-6.065-18.2S395.612,196.2,395.612,196.2a5.6,5.6,0,0,0-2.241,1.318c.527,4.087.4,7.516-1.978,11.6-3.033,5.274-2.9,12.79,1.846,16.613,2.9,2.241,4.615,5.01,6.461,8.57C406.556,234.7,412.226,232.987,412.49,226.262Z" transform="translate(764.035 149.984)" opacity="0.2"/><path d="M403.878,215.2s-3.428,1.319-5.274,8.57c-1.978,7.12-7.647,31.249-7.647,31.249l-17.4,22.415a22.587,22.587,0,0,0-6.329,1.582,10.712,10.712,0,0,0-3.824,3.56,31.555,31.555,0,0,0,4.219-.923l-4.219,6.856h8.175a31.433,31.433,0,0,0,6.593-8.438l21.755-22.151s4.219-21.887,6.065-26.9C407.7,226.012,403.878,215.2,403.878,215.2Z" transform="translate(755.769 156.036)" fill="#ffadad"/><path d="M398.718,215.2s-3.428,1.319-5.274,8.57c-1.978,7.12-7.647,31.249-7.647,31.249l-6.2,7.911,15.163-5.142s4.219-21.887,6.065-26.9C402.542,226.012,398.718,215.2,398.718,215.2Z" transform="translate(760.929 156.036)" opacity="0.2"/><path d="M394.1,197.788a35.568,35.568,0,0,0,8.175-3.824s-1.582,2.373-.659,2.373,6.065-5.538,6.065-5.538-.791,10.812,4.615,15.69v12.921h-9.362l-.132-5.538a9.412,9.412,0,0,1-2.11.527c-.791,0-4.879-4.615-4.615-9.361C396.21,202.007,395.023,198.184,394.1,197.788Z" transform="translate(765.547 148.264)" fill="#ffadad"/><path d="M400.7,209.865l.132,5.142c6.724-1.714,7.384-11.207,7.384-11.207A11.934,11.934,0,0,1,400.7,209.865Z" transform="translate(767.65 152.405)" opacity="0.2"/><path d="M402.2,214.228V210.8h12.526s-.4,3.164.791,3.824c1.055.791,7.384,2.11,8.834,5.01s3.164,15.69,1.187,26.37c-1.978,10.812-1.846,12.79-.264,16.481,1.714,3.692,4.219,8.834,4.483,12.526,0,0-24.393,4.351-38.105,0,0,0,6.329-15.558,5.538-23.206-.791-7.779-5.67-10.416-6.461-14.9-.791-4.615,3.033-11.207,3.033-11.207s-.132-7.516,1.45-9.1C396.659,215.283,402.2,214.228,402.2,214.228Z" transform="translate(764.438 154.634)" fill="#2a2a2a"/><path d="M429.573,267.845c-.264-3.692-2.9-8.834-4.483-12.526-1.582-3.428-1.846-5.406-.264-14.108l-32.7-7.911h0c1.714,2.9,4.351,5.8,5.01,11.207.791,7.779-5.538,23.206-5.538,23.206C405.181,272.2,429.573,267.845,429.573,267.845Z" transform="translate(764.751 161.801)" fill="#0b0b0b"/><path d="M426.418,216.5s-3.956,2.241-3.692,9.889,2.637,23.206,2.637,23.206l-26.107-1.187s-6.724-4.483-9.493-5.142-9.23-.4-9.361,1.055c-.264,1.45,6.724,3.692,6.724,3.692l3.033,3.164s-5.142-1.582-5.274-.791c-.264.791,5.8,5.142,13.712,3.033,0,0,33.358,5.8,35.6,4.351,2.637-1.846-1.319-24.129-1.846-27.557C431.692,226.916,430.242,219.005,426.418,216.5Z" transform="translate(761.182 156.45)" fill="#ffadad"/><path d="M418.561,360.811c.264,4.087-6.461,18.327-6.461,18.327s14.5-9.625,18.064-14.24c0,0-5.67-5.538-5.406-10.812.132-2.242-.264-10.021-1.055-18.987l-10.68,2.373C415.924,349.076,418.429,358.965,418.561,360.811Z" transform="translate(771.281 194.226)" fill="#ffadad"/><path d="M405.3,356.5h-7.384L378.8,365.73l27.953-1.45S405.566,362.038,405.3,356.5Z" transform="translate(760.674 201.042)" fill="#402c2c"/><path d="M430.264,359.133a24.692,24.692,0,0,1-4.219-5.933c-3.692,3.956-7.384,1.846-7.384,1.846.264,4.087-6.461,18.327-6.461,18.327S426.7,363.748,430.264,359.133Z" transform="translate(771.313 199.991)" fill="#402c2c"/><path d="M357.775,260.443h68.958L418.558,216.8H349.6Z" transform="translate(751.374 156.545)" opacity="0.91" fill="url(#d)"/><path d="M357.432,225.923h20.437l-.132-.923H357.3Z" transform="translate(753.826 159.157)" fill="#9a9fb3"/><path d="M357.932,228.623h20.437l-.132-.923H357.8Z" transform="translate(753.985 160.017)" fill="#9a9fb3"/><path d="M358.432,231.323h20.437l-.132-.923H358.3Z" transform="translate(754.144 160.877)" fill="#9a9fb3"/><path d="M358.932,234.023h20.437l-.132-.923H358.8Z" transform="translate(754.304 161.737)" fill="#9a9fb3"/><path d="M359.432,236.723h20.437l-.132-.923H359.3Z" transform="translate(754.463 162.597)" fill="#9a9fb3"/><path d="M360.632,242.791h6.724l-.132-.791H360.5Z" transform="translate(754.845 164.572)" fill="#9a9fb3"/><path d="M399.106,219.028a1.266,1.266,0,0,0,1.187.923.742.742,0,0,0,.791-.923,1.266,1.266,0,0,0-1.187-.923A.7.7,0,0,0,399.106,219.028Z" transform="translate(767.134 156.954)" fill="#f88"/><path d="M395.8,219.028a1.266,1.266,0,0,0,1.187.923.742.742,0,0,0,.791-.923,1.266,1.266,0,0,0-1.187-.923C396.064,217.973,395.8,218.5,395.8,219.028Z" transform="translate(766.089 156.954)" fill="#f88"/><path d="M392.5,219.028a1.266,1.266,0,0,0,1.187.923.742.742,0,0,0,.791-.923,1.266,1.266,0,0,0-1.187-.923C392.764,217.973,392.5,218.5,392.5,219.028Z" transform="translate(765.038 156.954)" fill="#f88"/><ellipse cx="12.262" cy="14.767" rx="12.262" ry="14.767" transform="matrix(0.673, -0.739, 0.739, 0.673, 1131.918, 393.681)" fill="#f88"/><ellipse cx="4.219" cy="5.01" rx="4.219" ry="5.01" transform="matrix(0.673, -0.739, 0.739, 0.673, 1144.004, 391.239)" fill="#fff"/><path d="M381.442,245.548A13.36,13.36,0,0,0,394.1,256.1c5.933,0,9.757-4.747,8.57-10.548A13.36,13.36,0,0,0,390.013,235C384.211,235,380.388,239.747,381.442,245.548Z" transform="translate(761.46 162.342)" fill="#fff"/><ellipse cx="12.262" cy="14.767" rx="12.262" ry="14.767" transform="matrix(0.673, -0.739, 0.739, 0.673, 1131.918, 393.681)"/><circle cx="20.701" cy="20.701" r="20.701" transform="translate(1210.146 457.335)" fill="url(#e)"/><circle cx="13.317" cy="13.317" r="13.317" transform="translate(942.752 332.735)" fill="url(#f)"/><path d="M374,270.9H310.451a4.39,4.39,0,0,0-4.351,4.351V342.1a4.39,4.39,0,0,0,4.351,4.351H374a4.39,4.39,0,0,0,4.351-4.351V275.251A4.39,4.39,0,0,0,374,270.9Z" transform="translate(737.518 173.777)" opacity="0.28" fill="url(#g)"/><path d="M372.2,269H308.651a4.39,4.39,0,0,0-4.351,4.351V340.2a4.39,4.39,0,0,0,4.351,4.351H372.2a4.39,4.39,0,0,0,4.351-4.351V273.351A4.39,4.39,0,0,0,372.2,269Z" transform="translate(736.945 173.172)" fill="#fff"/><path d="M372.2,269H308.651a4.39,4.39,0,0,0-4.351,4.351v6.2h72.123v-6.2A4.2,4.2,0,0,0,372.2,269Z" transform="translate(736.945 173.172)" fill="#f88"/><circle cx="1.45" cy="1.45" r="1.45" transform="translate(1044.673 446.127)" fill="#fff"/><circle cx="1.45" cy="1.45" r="1.45" transform="translate(1051.266 446.127)" fill="#fff"/><path d="M319.7,273.45a1.45,1.45,0,1,1-1.45-1.45A1.463,1.463,0,0,1,319.7,273.45Z" transform="translate(740.926 174.127)" fill="#fff"/><rect width="4.615" height="0.659" transform="translate(1102.556 445.732)" fill="#fff"/><rect width="4.615" height="0.659" transform="translate(1102.556 447.182)" fill="#fff"/><rect width="4.615" height="0.659" transform="translate(1102.556 448.633)" fill="#fff"/><rect width="56.037" height="20.437" transform="translate(1050.474 460.763)" opacity="0.2"/><rect width="56.037" height="20.437" transform="translate(1049.42 459.444)" fill="#ffe7db"/><line x2="46.28" transform="translate(1053.375 464.455)" fill="none" stroke="#9a9fb3" stroke-miterlimit="10" stroke-width="0.25"/><line x2="46.28" transform="translate(1053.375 467.883)" fill="none" stroke="#9a9fb3" stroke-miterlimit="10" stroke-width="0.25"/><line x2="46.28" transform="translate(1053.375 471.443)" fill="none" stroke="#9a9fb3" stroke-miterlimit="10" stroke-width="0.25"/><line x2="20.305" transform="translate(1053.375 475.003)" fill="none" stroke="#9a9fb3" stroke-miterlimit="10" stroke-width="0.25"/><rect width="56.037" height="20.437" transform="translate(1050.474 489.375)" opacity="0.2"/><rect width="56.037" height="20.437" transform="translate(1049.42 488.188)" fill="#ffe7db"/><line x2="46.28" transform="translate(1053.375 493.067)" fill="none" stroke="#9a9fb3" stroke-miterlimit="10" stroke-width="0.25"/><line x2="46.28" transform="translate(1053.375 496.626)" fill="none" stroke="#9a9fb3" stroke-miterlimit="10" stroke-width="0.25"/><line x2="46.28" transform="translate(1053.375 500.055)" fill="none" stroke="#9a9fb3" stroke-miterlimit="10" stroke-width="0.25"/><line x2="20.305" transform="translate(1053.375 503.615)" fill="none" stroke="#9a9fb3" stroke-miterlimit="10" stroke-width="0.25"/><circle cx="13.185" cy="13.185" r="13.185" transform="translate(1098.468 464.587)" fill="#f88" opacity="0.68"/><path d="M367.376,295.328,353.4,291.9l3.56,13.976,2.505-2.637L374.5,319.853,381.353,313l-16.481-15.031Z" transform="translate(752.584 180.466)" fill="#fff"/><line x2="6.856" transform="translate(1210.146 430.437)" fill="none" stroke="#fff" stroke-miterlimit="10" stroke-width="1"/><line y2="6.988" transform="translate(1213.575 427.009)" fill="none" stroke="#fff" stroke-miterlimit="10" stroke-width="1"/><line x2="6.856" transform="translate(1053.111 424.767)" fill="none" stroke="#fff" stroke-miterlimit="10" stroke-width="1"/><line y2="6.856" transform="translate(1056.54 421.339)" fill="none" stroke="#fff" stroke-miterlimit="10" stroke-width="1"/><line x2="6.856" transform="translate(1128.267 520.096)" fill="none" stroke="#fff" stroke-miterlimit="10" stroke-width="1"/><line y2="6.856" transform="translate(1131.695 516.668)" fill="none" stroke="#fff" stroke-miterlimit="10" stroke-width="1"/><line x2="6.856" transform="translate(964.244 425.822)" fill="none" stroke="#fff" stroke-miterlimit="10" stroke-width="1"/><line y2="6.856" transform="translate(967.672 422.394)" fill="none" stroke="#fff" stroke-miterlimit="10" stroke-width="1"/></g></svg>