<?xml version="1.0" encoding="UTF-8" standalone="no"?>
<svg xmlns:dc="http://purl.org/dc/elements/1.1/" xmlns:cc="http://creativecommons.org/ns#" xmlns:rdf="http://www.w3.org/1999/02/22-rdf-syntax-ns#" xmlns:svg="http://www.w3.org/2000/svg" xmlns="http://www.w3.org/2000/svg" xmlns:sodipodi="http://sodipodi.sourceforge.net/DTD/sodipodi-0.dtd" xmlns:inkscape="http://www.inkscape.org/namespaces/inkscape" width="64px" height="64px" viewBox="0 0 64.000001 64.000001" id="svg2" version="1.1" inkscape:version="0.91 r13725" sodipodi:docname="Mission promotion rocket space fly start spaceship.svg">
  <defs id="defs4">
    <pattern y="0" x="0" height="6" width="6" patternUnits="userSpaceOnUse" id="EMFhbasepattern"/>
  </defs>
  <sodipodi:namedview id="base" pagecolor="#ffffff" bordercolor="#666666" borderopacity="1.0" inkscape:pageopacity="0.0" inkscape:pageshadow="2" inkscape:zoom="2.8" inkscape:cx="-23.856638" inkscape:cy="-5.8291194" inkscape:document-units="px" inkscape:current-layer="layer1" showgrid="true" units="px" inkscape:window-width="1366" inkscape:window-height="705" inkscape:window-x="-8" inkscape:window-y="-8" inkscape:window-maximized="1" inkscape:snap-bbox="true" inkscape:bbox-nodes="true" inkscape:bbox-paths="true" inkscape:snap-bbox-edge-midpoints="true" inkscape:snap-bbox-midpoints="true">
    <inkscape:grid type="xygrid" id="grid3353"/>
  </sodipodi:namedview>
  
  <g inkscape:label="Layer 1" inkscape:groupmode="layer" id="layer1" transform="translate(0,-988.36216)">
    <g id="g3505">
      <g id="g3441">
        <path style="fill:none;stroke:#2b4255;stroke-width:1px;stroke-linecap:round;stroke-linejoin:round;stroke-opacity:1" d="m 4.5283493,1037.8622 5.9433007,0" id="path11104" inkscape:connector-curvature="0" sodipodi:nodetypes="cc"/>
        <path sodipodi:nodetypes="cc" inkscape:connector-curvature="0" id="path11106" d="m 25.513256,1039.8621 19.973486,0" style="fill:none;fill-opacity:0;fill-rule:evenodd;stroke:#f05542;stroke-width:0.99999994px;stroke-linecap:round;stroke-linejoin:round;stroke-opacity:1"/>
        <path style="fill:none;fill-opacity:0;fill-rule:evenodd;stroke:#f05542;stroke-width:1px;stroke-linecap:round;stroke-linejoin:round;stroke-opacity:1" d="m 27.507121,1041.8621 5.26301,0" id="path11108" inkscape:connector-curvature="0" sodipodi:nodetypes="cc"/>
        <path sodipodi:nodetypes="cc" inkscape:connector-curvature="0" id="path11110" d="m 35.507121,1041.8622 7.06075,0" style="fill:none;fill-opacity:0;fill-rule:evenodd;stroke:#f05542;stroke-width:1px;stroke-linecap:round;stroke-linejoin:round;stroke-opacity:1"/>
        <path style="fill:none;fill-opacity:0;fill-rule:evenodd;stroke:#f05542;stroke-width:1px;stroke-linecap:round;stroke-linejoin:round;stroke-opacity:1" d="m 31.49634,1043.8622 5.00732,0" id="path11112" inkscape:connector-curvature="0" sodipodi:nodetypes="cc"/>
        <path sodipodi:nodetypes="cccccccccc" inkscape:connector-curvature="0" id="path11116" d="m 21.339025,1012.6924 c -0.23692,0 -0.42598,0.1987 -0.42227,0.4356 0,0.2975 -0.12709,0.4323 -0.42225,0.4323 -0.58018,-0.01 -0.58018,0.8663 0,0.858 0.2842,0 0.42225,0.079 0.42225,0.4138 -0.008,0.5801 0.86613,0.5801 0.85792,0 0,-0.3043 0.14242,-0.4138 0.42393,-0.4138 0.58019,0.01 0.58019,-0.8662 0,-0.858 -0.38249,0 -0.42393,-0.2188 -0.42393,-0.4323 0.003,-0.2421 -0.19349,-0.4394 -0.43565,-0.4356 z" style="color:#000000;font-style:normal;font-variant:normal;font-weight:normal;font-stretch:normal;font-size:medium;line-height:normal;font-family:sans-serif;text-indent:0;text-align:start;text-decoration:none;text-decoration-line:none;letter-spacing:normal;word-spacing:normal;text-transform:none;direction:ltr;block-progression:tb;writing-mode:lr-tb;baseline-shift:baseline;text-anchor:start;display:inline;overflow:visible;visibility:visible;fill:#f05542;fill-opacity:1;fill-rule:evenodd;stroke:none;enable-background:accumulate"/>
        <path sodipodi:nodetypes="cccccccccc" inkscape:connector-curvature="0" id="path11118" d="m 18.740725,1020.5563 c -0.13007,0 -0.23387,0.1091 -0.23183,0.2392 0,0.1633 -0.0698,0.2373 -0.23181,0.2373 -0.31853,0 -0.31853,0.4756 0,0.471 0.15602,0 0.23181,0.043 0.23181,0.2273 -0.005,0.3184 0.47551,0.3184 0.471,0 0,-0.1671 0.0782,-0.2273 0.23274,-0.2273 0.31853,0 0.31853,-0.4755 0,-0.471 -0.20999,0 -0.23274,-0.1201 -0.23274,-0.2373 0.002,-0.133 -0.10623,-0.2413 -0.23917,-0.2392 z" style="color:#000000;font-style:normal;font-variant:normal;font-weight:normal;font-stretch:normal;font-size:medium;line-height:normal;font-family:sans-serif;text-indent:0;text-align:start;text-decoration:none;text-decoration-line:none;letter-spacing:normal;word-spacing:normal;text-transform:none;direction:ltr;block-progression:tb;writing-mode:lr-tb;baseline-shift:baseline;text-anchor:start;display:inline;overflow:visible;visibility:visible;fill:#2b4255;fill-opacity:1;fill-rule:evenodd;stroke:none;enable-background:accumulate"/>
        <path sodipodi:nodetypes="cccccccccc" inkscape:connector-curvature="0" id="path11120" d="m 21.002555,1000.5666 c -0.17262,0 -0.31037,0.1448 -0.30767,0.3174 0,0.2167 -0.0926,0.315 -0.30765,0.315 -0.42273,-0.01 -0.42273,0.6311 0,0.6251 0.20707,0 0.30765,0.057 0.30765,0.3015 -0.006,0.4227 0.63107,0.4227 0.62509,0 0,-0.2218 0.10377,-0.3015 0.30888,-0.3015 0.42273,0.01 0.42273,-0.6312 0,-0.6251 -0.27869,0 -0.30888,-0.1595 -0.30888,-0.315 0.002,-0.1765 -0.14098,-0.3202 -0.31742,-0.3174 z" style="color:#000000;font-style:normal;font-variant:normal;font-weight:normal;font-stretch:normal;font-size:medium;line-height:normal;font-family:sans-serif;text-indent:0;text-align:start;text-decoration:none;text-decoration-line:none;letter-spacing:normal;word-spacing:normal;text-transform:none;direction:ltr;block-progression:tb;writing-mode:lr-tb;baseline-shift:baseline;text-anchor:start;display:inline;overflow:visible;visibility:visible;fill:#2b4255;fill-opacity:1;fill-rule:evenodd;stroke:none;enable-background:accumulate"/>
        <path sodipodi:nodetypes="cccccccccc" inkscape:connector-curvature="0" id="path11122" d="m 40.738585,999.95711 c -0.13007,0.002 -0.23387,0.10909 -0.23183,0.23919 0,0.1633 -0.0698,0.2373 -0.23182,0.2373 -0.31852,0 -0.31852,0.4756 0,0.471 0.15603,0 0.23182,0.043 0.23182,0.2272 -0.005,0.3185 0.47551,0.3185 0.471,0 0,-0.1671 0.0782,-0.2272 0.23274,-0.2272 0.31853,0 0.31853,-0.4755 0,-0.471 -0.20999,0 -0.23274,-0.1201 -0.23274,-0.2373 0.002,-0.1329 -0.10623,-0.24127 -0.23917,-0.23919 z" style="color:#000000;font-style:normal;font-variant:normal;font-weight:normal;font-stretch:normal;font-size:medium;line-height:normal;font-family:sans-serif;text-indent:0;text-align:start;text-decoration:none;text-decoration-line:none;letter-spacing:normal;word-spacing:normal;text-transform:none;direction:ltr;block-progression:tb;writing-mode:lr-tb;baseline-shift:baseline;text-anchor:start;display:inline;overflow:visible;visibility:visible;fill:#f05542;fill-opacity:1;fill-rule:evenodd;stroke:none;enable-background:accumulate"/>
        <path sodipodi:nodetypes="cccccccccc" inkscape:connector-curvature="0" id="path11124" d="m 50.076135,1006.1412 c -0.17262,0 -0.31037,0.1448 -0.30767,0.3174 0,0.2167 -0.0926,0.315 -0.30765,0.315 -0.42273,-0.01 -0.42273,0.6311 0,0.6251 0.20707,0 0.30765,0.057 0.30765,0.3015 -0.006,0.4227 0.63107,0.4227 0.62509,0 0,-0.2217 0.10377,-0.3015 0.30888,-0.3015 0.42273,0.01 0.42273,-0.6311 0,-0.6251 -0.27869,0 -0.30888,-0.1594 -0.30888,-0.315 0.002,-0.1764 -0.14098,-0.3202 -0.31742,-0.3174 z" style="color:#000000;font-style:normal;font-variant:normal;font-weight:normal;font-stretch:normal;font-size:medium;line-height:normal;font-family:sans-serif;text-indent:0;text-align:start;text-decoration:none;text-decoration-line:none;letter-spacing:normal;word-spacing:normal;text-transform:none;direction:ltr;block-progression:tb;writing-mode:lr-tb;baseline-shift:baseline;text-anchor:start;display:inline;overflow:visible;visibility:visible;fill:#2b4255;fill-opacity:1;fill-rule:evenodd;stroke:none;enable-background:accumulate"/>
        <path sodipodi:nodetypes="cccccccccc" inkscape:connector-curvature="0" id="path11126" d="m 47.460685,1014.1161 c -0.13007,0 -0.23386,0.1091 -0.23183,0.2391 0,0.1633 -0.0698,0.2374 -0.23181,0.2374 -0.31853,0 -0.31853,0.4755 0,0.471 0.15603,0 0.23181,0.043 0.23181,0.2272 -0.005,0.3185 0.47551,0.3185 0.471,0 0,-0.1671 0.0782,-0.2272 0.23274,-0.2272 0.31853,0 0.31853,-0.4756 0,-0.471 -0.20999,0 -0.23274,-0.1201 -0.23274,-0.2374 0.002,-0.1329 -0.10622,-0.2412 -0.23917,-0.2391 z" style="color:#000000;font-style:normal;font-variant:normal;font-weight:normal;font-stretch:normal;font-size:medium;line-height:normal;font-family:sans-serif;text-indent:0;text-align:start;text-decoration:none;text-decoration-line:none;letter-spacing:normal;word-spacing:normal;text-transform:none;direction:ltr;block-progression:tb;writing-mode:lr-tb;baseline-shift:baseline;text-anchor:start;display:inline;overflow:visible;visibility:visible;fill:#f05542;fill-opacity:1;fill-rule:evenodd;stroke:none;enable-background:accumulate"/>
        <path sodipodi:nodetypes="cccccccccc" inkscape:connector-curvature="0" id="path11128" d="m 47.127095,1021.9531 c -0.23692,0 -0.42597,0.1987 -0.42227,0.4356 0,0.2975 -0.12709,0.4323 -0.42224,0.4323 -0.58019,-0.01 -0.58019,0.8662 0,0.858 0.2842,0 0.42224,0.079 0.42224,0.4138 -0.008,0.5801 0.86613,0.5801 0.85792,0 0,-0.3043 0.14243,-0.4138 0.42394,-0.4138 0.58018,0.01 0.58018,-0.8662 0,-0.858 -0.3825,0 -0.42394,-0.2188 -0.42394,-0.4323 0.003,-0.2421 -0.19349,-0.4394 -0.43565,-0.4356 z" style="color:#000000;font-style:normal;font-variant:normal;font-weight:normal;font-stretch:normal;font-size:medium;line-height:normal;font-family:sans-serif;text-indent:0;text-align:start;text-decoration:none;text-decoration-line:none;letter-spacing:normal;word-spacing:normal;text-transform:none;direction:ltr;block-progression:tb;writing-mode:lr-tb;baseline-shift:baseline;text-anchor:start;display:inline;overflow:visible;visibility:visible;fill:#f05542;fill-opacity:1;fill-rule:evenodd;stroke:none;enable-background:accumulate"/>
        <path sodipodi:nodetypes="cccccccccc" inkscape:connector-curvature="0" id="path11130" d="m 23.265305,1006.0451 c -0.17262,0 -0.31037,0.1448 -0.30767,0.3174 0,0.2167 -0.0926,0.315 -0.30765,0.315 -0.42273,-0.01 -0.42273,0.6311 0,0.6251 0.20707,0 0.30765,0.057 0.30765,0.3016 -0.006,0.4226 0.63107,0.4226 0.62509,0 0,-0.2218 0.10377,-0.3016 0.30888,-0.3016 0.42273,0.01 0.42273,-0.6311 0,-0.6251 -0.27869,0 -0.30888,-0.1594 -0.30888,-0.315 0.002,-0.1764 -0.14098,-0.3202 -0.31742,-0.3174 z" style="color:#000000;font-style:normal;font-variant:normal;font-weight:normal;font-stretch:normal;font-size:medium;line-height:normal;font-family:sans-serif;text-indent:0;text-align:start;text-decoration:none;text-decoration-line:none;letter-spacing:normal;word-spacing:normal;text-transform:none;direction:ltr;block-progression:tb;writing-mode:lr-tb;baseline-shift:baseline;text-anchor:start;display:inline;overflow:visible;visibility:visible;fill:#2b4255;fill-opacity:1;fill-rule:evenodd;stroke:none;enable-background:accumulate"/>
        <path sodipodi:nodetypes="cccccccccc" inkscape:connector-curvature="0" id="path11132" d="m 30.938605,996.97582 c -0.13341,0.002 -0.23988,0.11192 -0.23779,0.24533 0,0.16748 -0.0716,0.24344 -0.23777,0.24344 -0.32672,-0.005 -0.32672,0.48778 0,0.48311 0.16003,0 0.23777,0.0443 0.23777,0.23306 -0.004,0.32666 0.48774,0.32666 0.48311,0 0,-0.17139 0.0803,-0.23306 0.23872,-0.23306 0.32672,0.005 0.32672,-0.48778 0,-0.48311 -0.21538,0 -0.23872,-0.12322 -0.23872,-0.24344 0.001,-0.13637 -0.10899,-0.24747 -0.24532,-0.24533 z" style="color:#000000;font-style:normal;font-variant:normal;font-weight:normal;font-stretch:normal;font-size:medium;line-height:normal;font-family:sans-serif;text-indent:0;text-align:start;text-decoration:none;text-decoration-line:none;letter-spacing:normal;word-spacing:normal;text-transform:none;direction:ltr;block-progression:tb;writing-mode:lr-tb;baseline-shift:baseline;text-anchor:start;display:inline;overflow:visible;visibility:visible;fill:#2b4255;fill-opacity:1;fill-rule:evenodd;stroke:none;enable-background:accumulate"/>
        <path d="m 27.292897,1021.0522 c -2.051604,1.9227 -3.343302,4.7206 -3.343302,7.836 0,1.3649 0.26,2.7154 0.7545,3.9782 1.5393,-3.9384 5.191,-6.5112 9.2454,-6.5127 4.0572,0 7.7089,2.5801 9.2454,6.5214 0.4972,-1.2657 0.7531,-2.6191 0.7545,-3.9869 0,-3.1591 -1.327701,-5.9916 -3.429341,-7.9162" stroke-miterlimit="100" connector-curvature="0" id="path11187" inkscape:connector-curvature="0" style="fill:none;stroke:#2b4255;stroke-width:1;stroke-linejoin:round;stroke-miterlimit:100;stroke-opacity:1" sodipodi:nodetypes="csccccc"/>
        <path sodipodi:nodetypes="cccccc" style="fill:none;stroke:#2b4255;stroke-width:1;stroke-linecap:round;stroke-linejoin:round;stroke-miterlimit:100;stroke-opacity:1" inkscape:connector-curvature="0" id="path8252-2" open="true" end="5.0956351" start="4.2712122" type="arc" ry="18.000044" rx="18.000044" cx="459.00555" cy="919.85638" stroke-miterlimit="100" d="m 28.709195,1024.9662 c 0.5975,-0.2617 1.2099,-0.4764 1.8316,-0.6442 m 1.2774,-0.2954 c 0.2175,-0.04 -0.2189,0.029 0,0 m 1.4664,-0.1372 c 1.9908,-0.099 3.9991,0.26 5.864,1.0773"/>
        <path d="m 26.949395,1016.9417 c 0.012,3.5793 1.0427,7.179 2.9519,10.2949 1.2905,-0.5279 2.6512,-0.88 4.0481,-0.8829 1.4053,0 2.7967,0.2745 4.0928,0.8045 1.9029,-3.1187 2.9044,-6.6372 2.9072,-10.2165 -0.011,-5.6981 -2.1776,-11.1449 -6.6469,-15.071 -3.43,3.0235 -5.9328,6.9429 -6.9062,11.1835 m -0.3175,1.6837 c -0.033,0.1669 -0.063,0.3343 -0.091,0.5021" stroke-miterlimit="100" connector-curvature="0" nodetypes="ccccccc" id="path11157" inkscape:connector-curvature="0" style="fill:none;stroke:#2b4255;stroke-width:1;stroke-linecap:round;stroke-linejoin:round;stroke-miterlimit:100;stroke-opacity:1" sodipodi:nodetypes="ccccccccc"/>
        <path sodipodi:nodetypes="cccccccccccccccccccccccccc" inkscape:connector-curvature="0" id="path11233" d="m 15.867595,1028.719 c 2.6305,-0.8856 5.6104,0.1565 7.0745,2.6436 0.8151,1.3847 1.0403,3.0387 0.6251,4.5909 l 0,0 c 0.6482,-1.4982 2.145,-2.6158 3.744,-2.2872 0.2372,0.9661 0.6078,1.5322 1.0207,1.9714 -1.2254,-1.2254 -1.2254,-3.2121 0,-4.4375 1.0042,-1.0042 2.5577,-1.2088 3.7876,-0.4987 l 0.01,1.6622 0,-5.7452 c 1.0201,-0.3838 2.0774,-0.3222 3.1563,0 l 0,7.5265 0.01,-3.5524 c 1.2299,-0.7101 2.916,-0.4834 3.9202,0.5208 1.2254,1.2254 1.2254,3.2121 0,4.4375 0.5713,-0.5242 0.6691,-1.2214 1.0541,-1.9159 1.599,-0.3286 3.4593,0.6351 4.1075,2.1333 l 0,0 c -0.2267,-0.8474 -0.1051,-1.7218 0.2902,-2.4544 m 1.2681,-1.3056 c 1.5993,-0.9233 3.6443,-0.3754 4.5676,1.2239 0.9234,1.5993 0.3754,3.6992 -1.2239,4.6226 l -36.6681,0 c -1.1995,-2.0377 -1.0573,-4.7028 0.1611,-6.6719 m 1.0676,-1.2547 c 0.1249,-0.1436 0.2568,-0.2812 0.3955,-0.4121" style="fill:none;stroke:#2b4255;stroke-linecap:round;stroke-linejoin:round;stroke-opacity:1"/>
        <path style="fill:none;stroke:#2b4255;stroke-width:0.99996001;stroke-linecap:round;stroke-linejoin:round;stroke-miterlimit:34.17829895;stroke-opacity:1" inkscape:connector-curvature="0" id="path11270" connector-curvature="0" stroke-miterlimit="34.1783" d="m 37.715647,1013.1909 c 0,2.0061 -1.611988,3.6342 -3.622976,3.6342 -2.009535,0 -3.64478,-1.6288 -3.64478,-3.6342 l 0,0 c 0,-2.007 1.634518,-3.6372 3.64478,-3.6372 1.170086,0 2.205092,0.5516 2.866083,1.4085" sodipodi:nodetypes="csccsc"/>
        <path style="fill:none;stroke:#2b4255;stroke-width:1px;stroke-linecap:round;stroke-linejoin:round;stroke-opacity:1" d="m 52.616135,1037.8622 5.848072,0" id="path11104-8" inkscape:connector-curvature="0" sodipodi:nodetypes="cc"/>
      </g>
    </g>
  </g>

	
	
	<metadata>
		<rdf:RDF xmlns:rdf="http://www.w3.org/1999/02/22-rdf-syntax-ns#" xmlns:rdfs="http://www.w3.org/2000/01/rdf-schema#" xmlns:dc="http://purl.org/dc/elements/1.1/">
			<rdf:Description about="https://iconscout.com/legal#licenses" dc:title="Mission, Promotion, Rocket, Space, Fly, Start, Spaceship" dc:description="Mission, Promotion, Rocket, Space, Fly, Start, Spaceship" dc:publisher="Iconscout" dc:date="2016-12-14" dc:format="image/svg+xml" dc:language="en">
				<dc:creator>
					<rdf:Bag>
						<rdf:li>Dalpat Prajapati</rdf:li>
					</rdf:Bag>
				</dc:creator>
			</rdf:Description>
		</rdf:RDF>
    </metadata></svg>
