<svg width="1287" height="561" viewBox="0 0 1287 561" fill="none" xmlns="http://www.w3.org/2000/svg">
<path d="M0.5 321H2V327.5H3.5V332.5H7V337H9V372H11V374H29.5V377.5H32.5V380H74.5V390H88.5V421H98.5V361.5H112.5V358.5H145.5V351H148V348.5H142V345H172.5V348.5H168V350H182.5V325H234.5V350.5H278.5V325.5H284V323.5H289V322.5H301.5V321H305.5V298H311V261.5H312.5V233H315V225H318V219H325V210.5H344V219H346V222H354V227H356V233H358.5V300H375.5V367.5H388.5V371H412.5V249.5H425.5V156.5H430V154H434V86.5H437.5V84.5H440V80H446V64.5H447.5V41H448.5V23.5H451V78H459V58.5H461V39V11H464.5V80H467.5V83H477.5V153.5H489V157H496.5V248H508.5V324H510V325.5H511.5V327.5H513V331.5H515.5L515 345H517V364H520V375H539.5V312.5H551.5V311H568.5V309H597V312.5H603V324.5H606V358.5H608.5V317H615.5V276H617V254.5H619.5V258H625.5V246H632.5H645V248.5H657V244.5H669V255H675V252H679.5V314H695V306H714.5V304H722V302H739.5V299.5H752V297.5H775V311H779V341H787V345.5H794V329H795.5V314H811V249.5L848 245.5L922.5 252V303.5H939.5V310.5H957.5V236L1026 227.5H1044V266.5H1062L1084 288.5V313H1150V283L1186.5 246.5L1204.75 264.75V255.5H1207.5V267.5L1223 283V292.5H1248.5V199.5L1287 195V560.5H0V321H0.5Z" fill="#EDF3FF"/>
<mask id="mask0" mask-type="alpha" maskUnits="userSpaceOnUse" x="256" y="0" width="501" height="572">
<rect x="256" width="501" height="572" fill="#883838"/>
</mask>
<g mask="url(#mask0)">
<path d="M-387.5 321H-386V327.5H-384.5V332.5H-381V337H-379V372H-377V374H-358.5V377.5H-355.5V380H-313.5V390H-299.5V421H-289.5V361.5H-275.5V358.5H-242.5V351H-240V348.5H-246V345H-215.5V348.5H-220V350H-205.5V325H-153.5V350.5H-109.5V325.5H-104V323.5H-99V322.5H-86.5V321H-82.5V298H-77V261.5H-75.5V233H-73V225H-70V219H-63V210.5H-44V219H-42V222H-34V227H-32V233H-29.5V300H-12.5V367.5H0.5V371H24.5V249.5H37.5V156.5H42V154H46V86.5H49.5V84.5H52V80H58V64.5H59.5V41H60.5V23.5H63V78H71V58.5H73V39V11H76.5V80H79.5V83H89.5V153.5H101V157H108.5V248H120.5V324H122V325.5H123.5V327.5H125V331.5H127.5L127 345H129V364H132V375H151.5V312.5H163.5V311H180.5V309H209V312.5H215V324.5H218V358.5H220.5V317H227.5V276H229V254.5H231.5V258H237.5V246H244.5H257V248.5H269V244.5H281V255H287V252H291.5V314H307V306H326.5V304H334V302H351.5V299.5H364V297.5H387V311H391V341H399V345.5H406V329H407.5V314H423V249.5L460 245.5L534.5 252V303.5H551.5V310.5H569.5V236L638 227.5H656V266.5H674L696 288.5V313H762V283L798.5 246.5L816.75 264.75V255.5H819.5V267.5L835 283V292.5H860.5V199.5L899 195V560.5H-388V321H-387.5Z" fill="#E2ECFF"/>
</g>
<mask id="mask1" mask-type="alpha" maskUnits="userSpaceOnUse" x="0" y="0" width="1338" height="572">
<rect width="1338" height="572" transform="matrix(-1 0 0 1 1338 0)" fill="#883838"/>
</mask>
<g mask="url(#mask1)">
<path d="M1286.5 321H1285V327.5H1283.5V332.5H1280V337H1278V372H1276V374H1257.5V377.5H1254.5V380H1212.5V390H1198.5V421H1188.5V361.5H1174.5V358.5H1141.5V351H1139V348.5H1145V345H1114.5V348.5H1119V350H1104.5V325H1052.5V350.5H1008.5V325.5H1003V323.5H998V322.5H985.5V321H981.5V298H976V261.5H974.5V233H972V225H969V219H962V210.5H943V219H941V222H933V227H931V233H928.5V300H911.5V367.5H898.5V371H874.5V249.5H861.5V156.5H857V154H853V86.5H849.5V84.5H847V80H841V64.5H839.5V41H838.5V23.5H836V78H828V58.5H826V39V11H822.5V80H819.5V83H809.5V153.5H798V157H790.5V248H778.5V324H777V325.5H775.5V327.5H774V331.5H771.5L772 345H770V364H767V375H747.5V312.5H735.5V311H718.5V309H690V312.5H684V324.5H681V358.5H678.5V317H671.5V276H670V254.5H667.5V258H661.5V246H654.5H642V248.5H630V244.5H618V255H612V252H607.5V314H592V306H572.5V304H565V302H547.5V299.5H535V297.5H512V311H508V341H500V345.5H493V329H491.5V314H476V249.5L439 245.5L364.5 252V303.5H347.5V310.5H329.5V236L261 227.5H243V266.5H225L203 288.5V313H137V283L100.5 246.5L82.25 264.75V255.5H79.5V267.5L64 283V292.5H38.5V199.5L0 195V560.5H1287V321H1286.5Z" fill="#C6D9FE"/>
</g>
</svg>
