<?xml version="1.0" encoding="UTF-8" standalone="no"?>
<svg xmlns:dc="http://purl.org/dc/elements/1.1/" xmlns:cc="http://creativecommons.org/ns#" xmlns:rdf="http://www.w3.org/1999/02/22-rdf-syntax-ns#" xmlns:svg="http://www.w3.org/2000/svg" xmlns="http://www.w3.org/2000/svg" xmlns:sodipodi="http://sodipodi.sourceforge.net/DTD/sodipodi-0.dtd" xmlns:inkscape="http://www.inkscape.org/namespaces/inkscape" width="64px" height="64px" viewBox="0 0 64.000001 64.000001" id="svg2" version="1.1" inkscape:version="0.91 r13725" sodipodi:docname="Face happy healthy lucky smile emoticon cheerful.svg">
  <defs id="defs4">
    <pattern y="0" x="0" height="6" width="6" patternUnits="userSpaceOnUse" id="EMFhbasepattern"/>
  </defs>
  <sodipodi:namedview id="base" pagecolor="#ffffff" bordercolor="#666666" borderopacity="1.0" inkscape:pageopacity="0.0" inkscape:pageshadow="2" inkscape:zoom="15.839192" inkscape:cx="36.235171" inkscape:cy="38.720102" inkscape:document-units="px" inkscape:current-layer="layer1" showgrid="true" units="px" inkscape:window-width="1366" inkscape:window-height="705" inkscape:window-x="-8" inkscape:window-y="-8" inkscape:window-maximized="1" inkscape:snap-bbox="true" inkscape:bbox-paths="true" inkscape:bbox-nodes="true" inkscape:snap-bbox-edge-midpoints="true" inkscape:snap-bbox-midpoints="true">
    <inkscape:grid type="xygrid" id="grid3358"/>
  </sodipodi:namedview>
  
  <g inkscape:label="Layer 1" inkscape:groupmode="layer" id="layer1" transform="translate(0,-988.36216)">
    <g id="g3410">
      <path inkscape:connector-curvature="0" id="path8840" d="m 12.447266,1033.3613 a 0.50005,0.50005 0 1 0 0,1 l 39.816406,0 a 0.50005,0.50005 0 1 0 0,-1 l -39.816406,0 z" style="color:#000000;font-style:normal;font-variant:normal;font-weight:normal;font-stretch:normal;font-size:medium;line-height:normal;font-family:sans-serif;text-indent:0;text-align:start;text-decoration:none;text-decoration-line:none;text-decoration-style:solid;text-decoration-color:#000000;letter-spacing:normal;word-spacing:normal;text-transform:none;direction:ltr;block-progression:tb;writing-mode:lr-tb;baseline-shift:baseline;text-anchor:start;white-space:normal;clip-rule:nonzero;display:inline;overflow:visible;visibility:visible;opacity:1;isolation:auto;mix-blend-mode:normal;color-interpolation:sRGB;color-interpolation-filters:linearRGB;solid-color:#000000;solid-opacity:1;fill:#2b4255;fill-opacity:1;fill-rule:nonzero;stroke:none;stroke-width:1px;stroke-linecap:round;stroke-linejoin:round;stroke-miterlimit:4;stroke-dasharray:none;stroke-dashoffset:0;stroke-opacity:1;color-rendering:auto;image-rendering:auto;shape-rendering:auto;text-rendering:auto;enable-background:accumulate"/>
      <path inkscape:connector-curvature="0" id="path8842" d="m 54.972656,1033.3613 a 0.50005,0.50005 0 1 0 0,1 l 2.064453,0 a 0.50005,0.50005 0 1 0 0,-1 l -2.064453,0 z" style="color:#000000;font-style:normal;font-variant:normal;font-weight:normal;font-stretch:normal;font-size:medium;line-height:normal;font-family:sans-serif;text-indent:0;text-align:start;text-decoration:none;text-decoration-line:none;text-decoration-style:solid;text-decoration-color:#000000;letter-spacing:normal;word-spacing:normal;text-transform:none;direction:ltr;block-progression:tb;writing-mode:lr-tb;baseline-shift:baseline;text-anchor:start;white-space:normal;clip-rule:nonzero;display:inline;overflow:visible;visibility:visible;opacity:1;isolation:auto;mix-blend-mode:normal;color-interpolation:sRGB;color-interpolation-filters:linearRGB;solid-color:#000000;solid-opacity:1;fill:#2b4255;fill-opacity:1;fill-rule:nonzero;stroke:none;stroke-width:1px;stroke-linecap:round;stroke-linejoin:round;stroke-miterlimit:4;stroke-dasharray:none;stroke-dashoffset:0;stroke-opacity:1;color-rendering:auto;image-rendering:auto;shape-rendering:auto;text-rendering:auto;enable-background:accumulate"/>
      <path inkscape:connector-curvature="0" id="path8844" d="m 4.5078125,1033.3613 a 0.50005,0.50005 0 1 0 0,1 l 5.7031255,0 a 0.50005,0.50005 0 1 0 0,-1 l -5.7031255,0 z" style="color:#000000;font-style:normal;font-variant:normal;font-weight:normal;font-stretch:normal;font-size:medium;line-height:normal;font-family:sans-serif;text-indent:0;text-align:start;text-decoration:none;text-decoration-line:none;text-decoration-style:solid;text-decoration-color:#000000;letter-spacing:normal;word-spacing:normal;text-transform:none;direction:ltr;block-progression:tb;writing-mode:lr-tb;baseline-shift:baseline;text-anchor:start;white-space:normal;clip-rule:nonzero;display:inline;overflow:visible;visibility:visible;opacity:1;isolation:auto;mix-blend-mode:normal;color-interpolation:sRGB;color-interpolation-filters:linearRGB;solid-color:#000000;solid-opacity:1;fill:#2b4255;fill-opacity:1;fill-rule:nonzero;stroke:none;stroke-width:1px;stroke-linecap:round;stroke-linejoin:round;stroke-miterlimit:4;stroke-dasharray:none;stroke-dashoffset:0;stroke-opacity:1;color-rendering:auto;image-rendering:auto;shape-rendering:auto;text-rendering:auto;enable-background:accumulate"/>
      <path inkscape:connector-curvature="0" id="path8846" d="m 21.507812,1035.3613 a 0.50005,0.50005 0 1 0 0,1 l 19.734376,0 a 0.50005,0.50005 0 1 0 0,-1 l -19.734376,0 z" style="color:#000000;font-style:normal;font-variant:normal;font-weight:normal;font-stretch:normal;font-size:medium;line-height:normal;font-family:sans-serif;text-indent:0;text-align:start;text-decoration:none;text-decoration-line:none;text-decoration-style:solid;text-decoration-color:#000000;letter-spacing:normal;word-spacing:normal;text-transform:none;direction:ltr;block-progression:tb;writing-mode:lr-tb;baseline-shift:baseline;text-anchor:start;white-space:normal;clip-rule:nonzero;display:inline;overflow:visible;visibility:visible;opacity:1;isolation:auto;mix-blend-mode:normal;color-interpolation:sRGB;color-interpolation-filters:linearRGB;solid-color:#000000;solid-opacity:1;fill:#f05542;fill-opacity:1;fill-rule:evenodd;stroke:none;stroke-width:1px;stroke-linecap:round;stroke-linejoin:round;stroke-miterlimit:4;stroke-dasharray:none;stroke-dashoffset:0;stroke-opacity:1;color-rendering:auto;image-rendering:auto;shape-rendering:auto;text-rendering:auto;enable-background:accumulate"/>
      <path inkscape:connector-curvature="0" id="path8848" d="m 24.507812,1037.3613 a 0.50005,0.50005 0 1 0 0,1 l 5.261719,0 a 0.50005,0.50005 0 1 0 0,-1 l -5.261719,0 z" style="color:#000000;font-style:normal;font-variant:normal;font-weight:normal;font-stretch:normal;font-size:medium;line-height:normal;font-family:sans-serif;text-indent:0;text-align:start;text-decoration:none;text-decoration-line:none;text-decoration-style:solid;text-decoration-color:#000000;letter-spacing:normal;word-spacing:normal;text-transform:none;direction:ltr;block-progression:tb;writing-mode:lr-tb;baseline-shift:baseline;text-anchor:start;white-space:normal;clip-rule:nonzero;display:inline;overflow:visible;visibility:visible;opacity:1;isolation:auto;mix-blend-mode:normal;color-interpolation:sRGB;color-interpolation-filters:linearRGB;solid-color:#000000;solid-opacity:1;fill:#f05542;fill-opacity:1;fill-rule:evenodd;stroke:none;stroke-width:1px;stroke-linecap:round;stroke-linejoin:round;stroke-miterlimit:4;stroke-dasharray:none;stroke-dashoffset:0;stroke-opacity:1;color-rendering:auto;image-rendering:auto;shape-rendering:auto;text-rendering:auto;enable-background:accumulate"/>
      <path inkscape:connector-curvature="0" id="path8850" d="m 32.507812,1037.3613 a 0.50005,0.50005 0 1 0 0,1 l 7.060547,0 a 0.50005,0.50005 0 1 0 0,-1 l -7.060547,0 z" style="color:#000000;font-style:normal;font-variant:normal;font-weight:normal;font-stretch:normal;font-size:medium;line-height:normal;font-family:sans-serif;text-indent:0;text-align:start;text-decoration:none;text-decoration-line:none;text-decoration-style:solid;text-decoration-color:#000000;letter-spacing:normal;word-spacing:normal;text-transform:none;direction:ltr;block-progression:tb;writing-mode:lr-tb;baseline-shift:baseline;text-anchor:start;white-space:normal;clip-rule:nonzero;display:inline;overflow:visible;visibility:visible;opacity:1;isolation:auto;mix-blend-mode:normal;color-interpolation:sRGB;color-interpolation-filters:linearRGB;solid-color:#000000;solid-opacity:1;fill:#f05542;fill-opacity:1;fill-rule:evenodd;stroke:none;stroke-width:1px;stroke-linecap:round;stroke-linejoin:round;stroke-miterlimit:4;stroke-dasharray:none;stroke-dashoffset:0;stroke-opacity:1;color-rendering:auto;image-rendering:auto;shape-rendering:auto;text-rendering:auto;enable-background:accumulate"/>
      <path inkscape:connector-curvature="0" id="path8852" d="m 27.507812,1039.3613 a 0.50005,0.50005 0 1 0 0,1 l 5.115235,0 a 0.50005,0.50005 0 1 0 0,-1 l -5.115235,0 z" style="color:#000000;font-style:normal;font-variant:normal;font-weight:normal;font-stretch:normal;font-size:medium;line-height:normal;font-family:sans-serif;text-indent:0;text-align:start;text-decoration:none;text-decoration-line:none;text-decoration-style:solid;text-decoration-color:#000000;letter-spacing:normal;word-spacing:normal;text-transform:none;direction:ltr;block-progression:tb;writing-mode:lr-tb;baseline-shift:baseline;text-anchor:start;white-space:normal;clip-rule:nonzero;display:inline;overflow:visible;visibility:visible;opacity:1;isolation:auto;mix-blend-mode:normal;color-interpolation:sRGB;color-interpolation-filters:linearRGB;solid-color:#000000;solid-opacity:1;fill:#f05542;fill-opacity:1;fill-rule:evenodd;stroke:none;stroke-width:1px;stroke-linecap:round;stroke-linejoin:round;stroke-miterlimit:4;stroke-dasharray:none;stroke-dashoffset:0;stroke-opacity:1;color-rendering:auto;image-rendering:auto;shape-rendering:auto;text-rendering:auto;enable-background:accumulate"/>
      <path sodipodi:nodetypes="cccccccccc" inkscape:connector-curvature="0" id="path8854" d="m 31.31018,1006.2145 c -0.17262,0 -0.31037,0.1448 -0.30767,0.3174 0,0.2167 -0.0926,0.315 -0.30765,0.315 -0.42273,-0.01 -0.42273,0.6312 0,0.6251 0.20707,0 0.30765,0.057 0.30765,0.3016 -0.006,0.4226 0.63107,0.4226 0.62509,0 0,-0.2218 0.10377,-0.3016 0.30888,-0.3016 0.42273,0.01 0.42273,-0.6311 0,-0.6251 -0.27869,0 -0.30888,-0.1594 -0.30888,-0.315 0.002,-0.1764 -0.14098,-0.3201 -0.31742,-0.3174 z" style="color:#000000;font-style:normal;font-variant:normal;font-weight:normal;font-stretch:normal;font-size:medium;line-height:normal;font-family:sans-serif;text-indent:0;text-align:start;text-decoration:none;text-decoration-line:none;letter-spacing:normal;word-spacing:normal;text-transform:none;direction:ltr;block-progression:tb;writing-mode:lr-tb;baseline-shift:baseline;text-anchor:start;display:inline;overflow:visible;visibility:visible;fill:#2a4255;fill-opacity:0.99215686;fill-rule:evenodd;stroke:none;enable-background:accumulate"/>
      <path sodipodi:nodetypes="cccccccccc" inkscape:connector-curvature="0" id="path8856" d="m 15.05968,1010.0899 c -0.23692,0 -0.42598,0.1987 -0.42227,0.4357 0,0.2974 -0.12709,0.4323 -0.42225,0.4323 -0.58018,-0.01 -0.58018,0.8662 0,0.8579 0.2842,0 0.42225,0.079 0.42225,0.4139 -0.008,0.5801 0.86613,0.5801 0.85792,0 0,-0.3044 0.14242,-0.4139 0.42393,-0.4139 0.58019,0.01 0.58019,-0.8662 0,-0.8579 -0.38249,0 -0.42393,-0.2189 -0.42393,-0.4323 0.003,-0.2422 -0.19349,-0.4395 -0.43565,-0.4357 z" style="color:#000000;font-style:normal;font-variant:normal;font-weight:normal;font-stretch:normal;font-size:medium;line-height:normal;font-family:sans-serif;text-indent:0;text-align:start;text-decoration:none;text-decoration-line:none;letter-spacing:normal;word-spacing:normal;text-transform:none;direction:ltr;block-progression:tb;writing-mode:lr-tb;baseline-shift:baseline;text-anchor:start;display:inline;overflow:visible;visibility:visible;fill:#2a4255;fill-opacity:0.99215686;fill-rule:evenodd;stroke:none;enable-background:accumulate"/>
      <path sodipodi:nodetypes="cccccccccc" inkscape:connector-curvature="0" id="path8858" d="m 14.97706,1021.211 c -0.13007,0 -0.23387,0.1091 -0.23183,0.2392 0,0.1632 -0.0698,0.2373 -0.23181,0.2373 -0.31853,-0 -0.31853,0.4755 0,0.471 0.15602,0 0.23181,0.043 0.23181,0.2272 -0.005,0.3185 0.47551,0.3185 0.471,0 0,-0.1671 0.0782,-0.2272 0.23274,-0.2272 0.31853,0 0.31853,-0.4756 0,-0.471 -0.20999,0 -0.23274,-0.1201 -0.23274,-0.2373 0.002,-0.133 -0.10623,-0.2413 -0.23917,-0.2392 z" style="color:#000000;font-style:normal;font-variant:normal;font-weight:normal;font-stretch:normal;font-size:medium;line-height:normal;font-family:sans-serif;text-indent:0;text-align:start;text-decoration:none;text-decoration-line:none;letter-spacing:normal;word-spacing:normal;text-transform:none;direction:ltr;block-progression:tb;writing-mode:lr-tb;baseline-shift:baseline;text-anchor:start;display:inline;overflow:visible;visibility:visible;fill:#f05542;fill-opacity:1;fill-rule:evenodd;stroke:none;enable-background:accumulate"/>
      <path sodipodi:nodetypes="cccccccccc" inkscape:connector-curvature="0" id="path8860" d="m 21.97105,1002.2067 c -0.17262,0 -0.31037,0.1448 -0.30767,0.3174 0,0.2167 -0.0926,0.315 -0.30765,0.315 -0.42273,-0.01 -0.42273,0.6311 0,0.6251 0.20707,0 0.30765,0.057 0.30765,0.3016 -0.006,0.4226 0.63107,0.4226 0.62509,0 0,-0.2218 0.10377,-0.3016 0.30888,-0.3016 0.42273,0.01 0.42273,-0.6311 0,-0.6251 -0.27869,0 -0.30888,-0.1594 -0.30888,-0.315 0.002,-0.1764 -0.14098,-0.3202 -0.31742,-0.3174 z" style="color:#000000;font-style:normal;font-variant:normal;font-weight:normal;font-stretch:normal;font-size:medium;line-height:normal;font-family:sans-serif;text-indent:0;text-align:start;text-decoration:none;text-decoration-line:none;letter-spacing:normal;word-spacing:normal;text-transform:none;direction:ltr;block-progression:tb;writing-mode:lr-tb;baseline-shift:baseline;text-anchor:start;display:inline;overflow:visible;visibility:visible;fill:#2a4255;fill-opacity:0.99215686;fill-rule:evenodd;stroke:none;enable-background:accumulate"/>
      <path sodipodi:nodetypes="cccccccccc" inkscape:connector-curvature="0" id="path8862" d="m 36.98804,999.4164 c -0.13007,0.002 -0.23387,0.10912 -0.23183,0.23918 0,0.16329 -0.0698,0.23734 -0.23182,0.23734 -0.31852,-0.005 -0.31852,0.47558 0,0.47098 0.15603,0 0.23182,0.043 0.23182,0.2272 -0.005,0.3185 0.47551,0.3185 0.471,0 0,-0.1671 0.0782,-0.2272 0.23274,-0.2272 0.31853,0.01 0.31853,-0.47553 0,-0.47098 -0.20999,0 -0.23274,-0.12014 -0.23274,-0.23734 0.002,-0.13294 -0.10623,-0.24126 -0.23917,-0.23918 z" style="color:#000000;font-style:normal;font-variant:normal;font-weight:normal;font-stretch:normal;font-size:medium;line-height:normal;font-family:sans-serif;text-indent:0;text-align:start;text-decoration:none;text-decoration-line:none;letter-spacing:normal;word-spacing:normal;text-transform:none;direction:ltr;block-progression:tb;writing-mode:lr-tb;baseline-shift:baseline;text-anchor:start;display:inline;overflow:visible;visibility:visible;fill:#2a4255;fill-opacity:0.99215686;fill-rule:evenodd;stroke:none;enable-background:accumulate"/>
      <path sodipodi:nodetypes="cccccccccc" inkscape:connector-curvature="0" id="path8864" d="m 49.63042,1009.8143 c -0.17262,0 -0.31037,0.1448 -0.30767,0.3174 0,0.2167 -0.0926,0.315 -0.30765,0.315 -0.42273,-0.01 -0.42273,0.6311 0,0.6251 0.20707,0 0.30765,0.057 0.30765,0.3015 -0.006,0.4227 0.63107,0.4227 0.62509,0 0,-0.2217 0.10377,-0.3015 0.30888,-0.3015 0.42273,0.01 0.42273,-0.6312 0,-0.6251 -0.27869,0 -0.30888,-0.1595 -0.30888,-0.315 0.002,-0.1764 -0.14098,-0.3202 -0.31742,-0.3174 z" style="color:#000000;font-style:normal;font-variant:normal;font-weight:normal;font-stretch:normal;font-size:medium;line-height:normal;font-family:sans-serif;text-indent:0;text-align:start;text-decoration:none;text-decoration-line:none;letter-spacing:normal;word-spacing:normal;text-transform:none;direction:ltr;block-progression:tb;writing-mode:lr-tb;baseline-shift:baseline;text-anchor:start;display:inline;overflow:visible;visibility:visible;fill:#f05542;fill-opacity:1;fill-rule:evenodd;stroke:none;enable-background:accumulate"/>
      <path sodipodi:nodetypes="cccccccccc" inkscape:connector-curvature="0" id="path8866" d="m 47.98724,1011.6904 c -0.13007,0 -0.23386,0.1091 -0.23183,0.2391 0,0.1633 -0.0698,0.2374 -0.23181,0.2374 -0.31853,-0.01 -0.31853,0.4755 0,0.471 0.15603,0 0.23181,0.043 0.23181,0.2272 -0.005,0.3185 0.47551,0.3185 0.471,0 0,-0.1671 0.0782,-0.2272 0.23274,-0.2272 0.31853,0.01 0.31853,-0.4756 0,-0.471 -0.20999,0 -0.23274,-0.1202 -0.23274,-0.2374 0.002,-0.1329 -0.10622,-0.2412 -0.23917,-0.2391 z" style="color:#000000;font-style:normal;font-variant:normal;font-weight:normal;font-stretch:normal;font-size:medium;line-height:normal;font-family:sans-serif;text-indent:0;text-align:start;text-decoration:none;text-decoration-line:none;letter-spacing:normal;word-spacing:normal;text-transform:none;direction:ltr;block-progression:tb;writing-mode:lr-tb;baseline-shift:baseline;text-anchor:start;display:inline;overflow:visible;visibility:visible;fill:#f05542;fill-opacity:1;fill-rule:evenodd;stroke:none;enable-background:accumulate"/>
      <path sodipodi:nodetypes="cccccccccc" inkscape:connector-curvature="0" id="path8868" d="m 47.38849,1024.3887 c -0.23692,0 -0.42597,0.1988 -0.42227,0.4357 0,0.2974 -0.12709,0.4323 -0.42224,0.4323 -0.58019,-0.01 -0.58019,0.8662 0,0.8579 0.2842,0 0.42224,0.079 0.42224,0.4139 -0.008,0.5801 0.86613,0.5801 0.85792,0 0,-0.3044 0.14243,-0.4139 0.42394,-0.4139 0.58018,0.01 0.58018,-0.8662 0,-0.8579 -0.3825,0 -0.42394,-0.2188 -0.42394,-0.4323 0.003,-0.2422 -0.19349,-0.4395 -0.43565,-0.4357 z" style="color:#000000;font-style:normal;font-variant:normal;font-weight:normal;font-stretch:normal;font-size:medium;line-height:normal;font-family:sans-serif;text-indent:0;text-align:start;text-decoration:none;text-decoration-line:none;letter-spacing:normal;word-spacing:normal;text-transform:none;direction:ltr;block-progression:tb;writing-mode:lr-tb;baseline-shift:baseline;text-anchor:start;display:inline;overflow:visible;visibility:visible;fill:#f05542;fill-opacity:1;fill-rule:evenodd;stroke:none;enable-background:accumulate"/>
      <path sodipodi:nodetypes="cccccccccc" inkscape:connector-curvature="0" id="path8870" d="m 43.06052,1005.0336 c -0.17262,0 -0.31037,0.1448 -0.30767,0.3174 0,0.2167 -0.0926,0.315 -0.30765,0.315 -0.42273,-0.01 -0.42273,0.6311 0,0.6251 0.20707,0 0.30765,0.057 0.30765,0.3016 -0.006,0.4226 0.63107,0.4226 0.62509,0 0,-0.2218 0.10377,-0.3016 0.30888,-0.3016 0.42273,0.01 0.42273,-0.6311 0,-0.6251 -0.27869,0 -0.30888,-0.1594 -0.30888,-0.315 0.002,-0.1764 -0.14098,-0.3202 -0.31742,-0.3174 z" style="color:#000000;font-style:normal;font-variant:normal;font-weight:normal;font-stretch:normal;font-size:medium;line-height:normal;font-family:sans-serif;text-indent:0;text-align:start;text-decoration:none;text-decoration-line:none;letter-spacing:normal;word-spacing:normal;text-transform:none;direction:ltr;block-progression:tb;writing-mode:lr-tb;baseline-shift:baseline;text-anchor:start;display:inline;overflow:visible;visibility:visible;fill:#2a4255;fill-opacity:0.99215686;fill-rule:evenodd;stroke:none;enable-background:accumulate"/>
      <path sodipodi:nodetypes="cccccccccc" inkscape:connector-curvature="0" id="path8872" d="m 27.08296,999.60203 c -0.13341,0.002 -0.23988,0.11192 -0.23779,0.24533 0,0.16744 -0.0716,0.24344 -0.23777,0.24344 -0.32672,-0 -0.32672,0.4878 0,0.4831 0.16003,0 0.23777,0.044 0.23777,0.2331 -0.004,0.3266 0.48774,0.3266 0.48311,0 0,-0.1714 0.0803,-0.2331 0.23872,-0.2331 0.32672,0 0.32672,-0.4878 0,-0.4831 -0.21538,0 -0.23872,-0.12322 -0.23872,-0.24344 0.001,-0.13637 -0.10899,-0.24747 -0.24532,-0.24533 z" style="color:#000000;font-style:normal;font-variant:normal;font-weight:normal;font-stretch:normal;font-size:medium;line-height:normal;font-family:sans-serif;text-indent:0;text-align:start;text-decoration:none;text-decoration-line:none;letter-spacing:normal;word-spacing:normal;text-transform:none;direction:ltr;block-progression:tb;writing-mode:lr-tb;baseline-shift:baseline;text-anchor:start;display:inline;overflow:visible;visibility:visible;fill:#f05542;fill-opacity:1;fill-rule:evenodd;stroke:none;enable-background:accumulate"/>
      <path inkscape:connector-curvature="0" id="path9252" d="m 27.984375,1022.8125 a 0.50005006,0.50005006 0 0 0 -0.488281,0.4004 c -0.195392,0.9001 -1.302531,1.6827 -2.417969,1.6348 -0.317301,-0.014 -0.628804,-0.1241 -0.878906,-0.2676 a 0.50005006,0.50005006 0 1 0 -0.498047,0.8672 c 0.365258,0.2096 0.820681,0.3781 1.333984,0.4004 0.0077,3e-4 0.01375,-0.01 0.02148,-0.01 l 0,0.01 a 0.50005006,0.50005006 0 0 0 0.27539,-0.086 c 1.464462,-0.069 2.839786,-0.95 3.140625,-2.3359 a 0.50005006,0.50005006 0 0 0 -0.488281,-0.6133 z" style="color:#000000;font-style:normal;font-variant:normal;font-weight:normal;font-stretch:normal;font-size:medium;line-height:normal;font-family:sans-serif;text-indent:0;text-align:start;text-decoration:none;text-decoration-line:none;text-decoration-style:solid;text-decoration-color:#000000;letter-spacing:normal;word-spacing:normal;text-transform:none;direction:ltr;block-progression:tb;writing-mode:lr-tb;baseline-shift:baseline;text-anchor:start;white-space:normal;clip-rule:nonzero;display:inline;overflow:visible;visibility:visible;opacity:1;isolation:auto;mix-blend-mode:normal;color-interpolation:sRGB;color-interpolation-filters:linearRGB;solid-color:#000000;solid-opacity:1;fill:#2b4255;fill-opacity:0.98897059;fill-rule:nonzero;stroke:none;stroke-width:1.00000012;stroke-linecap:round;stroke-linejoin:round;stroke-miterlimit:34.17825699;stroke-dasharray:none;stroke-dashoffset:0;stroke-opacity:1;color-rendering:auto;image-rendering:auto;shape-rendering:auto;text-rendering:auto;enable-background:accumulate"/>
      <path inkscape:connector-curvature="0" id="path9258" d="m 24.855469,1012.4492 c -1.174863,-0 -2.367705,0.224 -3.515625,0.709 -1.184225,0.5004 -2.20915,1.2267 -3.041016,2.1074 a 0.56578974,0.56578974 0 0 0 0.822266,0.7774 c 0.727199,-0.7699 1.619863,-1.405 2.658203,-1.8438 4.026276,-1.701 8.669366,0.1936 10.375,4.2305 0.399462,0.9455 0.60009,1.9189 0.623047,2.8808 a 0.5650345,0.5650345 0 1 0 1.128906,-0.025 c -0.02628,-1.1011 -0.255882,-2.2179 -0.710938,-3.295 -1.457365,-3.4493 -4.815256,-5.533 -8.339843,-5.541 z m -7.333985,4.2461 a 0.5650345,0.5650345 0 0 0 -0.498046,0.291 c -0.156575,0.2741 -0.298655,0.5575 -0.425782,0.8457 a 0.5650345,0.5650345 0 1 0 1.033203,0.4551 c 0.111373,-0.2525 0.235926,-0.5002 0.373047,-0.7402 a 0.5650345,0.5650345 0 0 0 -0.482422,-0.8516 z m -1.041015,2.8262 A 0.5650345,0.5650345 0 0 0 15.949219,1020 c -0.275631,1.6419 -0.102887,3.3813 0.591797,5.0254 1.943698,4.6004 7.247338,6.725 11.833984,4.7871 1.784217,-0.7539 3.208057,-2.0134 4.162109,-3.541 0.266538,-0.4265 0.496007,-0.8748 0.6875,-1.3379 0.190659,-0.4614 0.342777,-0.9378 0.455079,-1.4258 a 0.5650345,0.5650345 0 1 0 -1.09961,-0.2539 c -0.09823,0.4268 -0.233466,0.8441 -0.40039,1.2481 -0.167627,0.4053 -0.368467,0.7969 -0.601563,1.1699 -0.834835,1.3367 -2.075265,2.4373 -3.642578,3.0996 -4.02855,1.7021 -8.647258,-0.1472 -10.353516,-4.1856 -0.609745,-1.4431 -0.760886,-2.9607 -0.519531,-4.3984 a 0.5650345,0.5650345 0 0 0 -0.582031,-0.666 z" style="color:#000000;font-style:normal;font-variant:normal;font-weight:normal;font-stretch:normal;font-size:medium;line-height:normal;font-family:sans-serif;text-indent:0;text-align:start;text-decoration:none;text-decoration-line:none;text-decoration-style:solid;text-decoration-color:#000000;letter-spacing:normal;word-spacing:normal;text-transform:none;direction:ltr;block-progression:tb;writing-mode:lr-tb;baseline-shift:baseline;text-anchor:start;white-space:normal;clip-rule:nonzero;display:inline;overflow:visible;visibility:visible;opacity:1;isolation:auto;mix-blend-mode:normal;color-interpolation:sRGB;color-interpolation-filters:linearRGB;solid-color:#000000;solid-opacity:1;fill:#2b4255;fill-opacity:0.98897059;fill-rule:nonzero;stroke:none;stroke-width:1.12995601;stroke-linecap:round;stroke-linejoin:round;stroke-miterlimit:10;stroke-dasharray:none;stroke-dashoffset:0;stroke-opacity:1;color-rendering:auto;image-rendering:auto;shape-rendering:auto;text-rendering:auto;enable-background:accumulate"/>
      <path inkscape:connector-curvature="0" id="circle9260" d="m 20.953096,1018.7081 c -0.757659,0.3201 -1.118056,1.2078 -0.797939,1.9655 0.320114,0.7576 1.207867,1.1181 1.965527,0.7979 0.75765,-0.3201 1.118052,-1.2078 0.797939,-1.9655 -0.320118,-0.7577 -1.207877,-1.118 -1.965527,-0.7979 z m 0.389196,0.9211 c 0.259821,-0.1098 0.545395,0.01 0.655176,0.266 0.109776,0.2598 -0.0062,0.5454 -0.26598,0.6552 -0.25983,0.1098 -0.545399,-0.01 -0.655176,-0.266 -0.10978,-0.2598 0.0061,-0.5454 0.26598,-0.6552 z" style="color:#000000;font-style:normal;font-variant:normal;font-weight:normal;font-stretch:normal;font-size:medium;line-height:normal;font-family:sans-serif;text-indent:0;text-align:start;text-decoration:none;text-decoration-line:none;text-decoration-style:solid;text-decoration-color:#000000;letter-spacing:normal;word-spacing:normal;text-transform:none;direction:ltr;block-progression:tb;writing-mode:lr-tb;baseline-shift:baseline;text-anchor:start;white-space:normal;clip-rule:nonzero;display:inline;overflow:visible;visibility:visible;opacity:1;isolation:auto;mix-blend-mode:normal;color-interpolation:sRGB;color-interpolation-filters:linearRGB;solid-color:#000000;solid-opacity:1;fill:#2b4255;fill-opacity:0.98897059;fill-rule:nonzero;stroke:none;stroke-width:1;stroke-linecap:butt;stroke-linejoin:miter;stroke-miterlimit:4;stroke-dasharray:none;stroke-dashoffset:0;stroke-opacity:1;color-rendering:auto;image-rendering:auto;shape-rendering:auto;text-rendering:auto;enable-background:accumulate"/>
      <path inkscape:connector-curvature="0" id="circle9262" d="m 25.725343,1017.0056 c -0.75765,0.3201 -1.118052,1.2078 -0.797939,1.9655 0.320118,0.7576 1.207876,1.118 1.965526,0.7979 0.75766,-0.3201 1.118057,-1.2078 0.797939,-1.9655 -0.320113,-0.7577 -1.207867,-1.1181 -1.965526,-0.7979 z m 0.389196,0.9211 c 0.25983,-0.1098 0.545399,0.01 0.655175,0.266 0.109781,0.2598 -0.0061,0.5454 -0.265979,0.6552 -0.259821,0.1097 -0.545395,-0.01 -0.655176,-0.266 -0.109776,-0.2598 0.0062,-0.5454 0.26598,-0.6552 z" style="color:#000000;font-style:normal;font-variant:normal;font-weight:normal;font-stretch:normal;font-size:medium;line-height:normal;font-family:sans-serif;text-indent:0;text-align:start;text-decoration:none;text-decoration-line:none;text-decoration-style:solid;text-decoration-color:#000000;letter-spacing:normal;word-spacing:normal;text-transform:none;direction:ltr;block-progression:tb;writing-mode:lr-tb;baseline-shift:baseline;text-anchor:start;white-space:normal;clip-rule:nonzero;display:inline;overflow:visible;visibility:visible;opacity:1;isolation:auto;mix-blend-mode:normal;color-interpolation:sRGB;color-interpolation-filters:linearRGB;solid-color:#000000;solid-opacity:1;fill:#2b4255;fill-opacity:0.98897059;fill-rule:nonzero;stroke:none;stroke-width:1;stroke-linecap:butt;stroke-linejoin:miter;stroke-miterlimit:4;stroke-dasharray:none;stroke-dashoffset:0;stroke-opacity:1;color-rendering:auto;image-rendering:auto;shape-rendering:auto;text-rendering:auto;enable-background:accumulate"/>
      <path inkscape:connector-curvature="0" id="path9091-8-5" d="m 37,1023.4941 a 0.50005006,0.50005006 0 0 0 -0.433594,0.7422 c 0.198767,0.3713 0.49606,0.7543 0.919922,1.0449 0.08505,0.058 0.196031,0.032 0.285156,0.082 l -0.002,0.01 a 0.50005006,0.50005006 0 0 0 0.01953,0 c 1.278215,0.7133 2.908741,0.6945 3.896485,-0.3203 a 0.5006692,0.5006692 0 1 0 -0.716797,-0.6992 c -0.642465,0.6601 -1.995249,0.7388 -2.916016,0.1074 -0.261754,-0.1795 -0.469289,-0.439 -0.605468,-0.6933 A 0.50005006,0.50005006 0 0 0 37,1023.4941 Z m 0.769531,1.875 -0.283203,-0.088 a 0.50005006,0.50005006 0 0 0 0.283203,0.088 z" style="color:#000000;font-style:normal;font-variant:normal;font-weight:normal;font-stretch:normal;font-size:medium;line-height:normal;font-family:sans-serif;text-indent:0;text-align:start;text-decoration:none;text-decoration-line:none;text-decoration-style:solid;text-decoration-color:#000000;letter-spacing:normal;word-spacing:normal;text-transform:none;direction:ltr;block-progression:tb;writing-mode:lr-tb;baseline-shift:baseline;text-anchor:start;white-space:normal;clip-rule:nonzero;display:inline;overflow:visible;visibility:visible;opacity:1;isolation:auto;mix-blend-mode:normal;color-interpolation:sRGB;color-interpolation-filters:linearRGB;solid-color:#000000;solid-opacity:1;fill:#2b4255;fill-opacity:1;fill-rule:nonzero;stroke:none;stroke-width:1.00000012;stroke-linecap:round;stroke-linejoin:round;stroke-miterlimit:34.17825699;stroke-dasharray:none;stroke-dashoffset:0;stroke-opacity:1;color-rendering:auto;image-rendering:auto;shape-rendering:auto;text-rendering:auto;enable-background:accumulate"/>
      <path inkscape:connector-curvature="0" id="path7837-5-3" d="m 41.070312,1012.5625 c -1.269535,-0.2028 -2.52324,-0.1287 -3.695312,0.1777 a 0.5650345,0.5650345 0 1 0 0.287109,1.0918 c 1.024638,-0.2679 2.117405,-0.3321 3.230469,-0.1543 4.316192,0.6894 7.251751,4.7545 6.560547,9.0821 -0.161879,1.0135 -0.508059,1.9473 -0.998047,2.7754 a 0.5650345,0.5650345 0 1 0 0.972656,0.5742 c 0.56089,-0.9479 0.956215,-2.0173 1.140625,-3.1719 0.787459,-4.9302 -2.575735,-9.5888 -7.498047,-10.375 z m -5.433593,0.8906 a 0.5650345,0.5650345 0 0 0 -0.253907,0.07 c -0.277973,0.1495 -0.548089,0.3131 -0.808593,0.4903 a 0.56581166,0.56581166 0 1 0 0.636719,0.9355 c 0.22825,-0.1552 0.46364,-0.2988 0.707031,-0.4297 a 0.5650345,0.5650345 0 0 0 -0.28125,-1.0664 z m -2.328125,1.8594 a 0.5650345,0.5650345 0 0 0 -0.433594,0.1973 c -0.386598,0.4367 -0.732366,0.9117 -1.03125,1.4218 a 0.5651084,0.5651084 0 1 0 0.974609,0.5723 c 0.261435,-0.4462 0.565807,-0.8637 0.904297,-1.2461 a 0.5650345,0.5650345 0 0 0 -0.414062,-0.9453 z m -1.003906,9.9141 a 0.5650345,0.5650345 0 0 0 -0.455079,0.8593 c 1.322316,2.2373 3.605581,3.8865 6.371094,4.3282 1.912721,0.3054 3.786013,-0.01 5.404297,-0.7989 0.451908,-0.2206 0.883323,-0.4781 1.291016,-0.7695 a 0.5650345,0.5650345 0 0 0 0,-0 c 0.406057,-0.2905 0.788885,-0.6144 1.142578,-0.9688 a 0.5650345,0.5650345 0 1 0 -0.798828,-0.7969 c -0.309418,0.31 -0.644416,0.5933 -1,0.8477 -0.356866,0.255 -0.735537,0.4808 -1.13086,0.6738 -1.416064,0.6917 -3.0503,0.9676 -4.730468,0.6992 -2.429001,-0.3879 -4.417333,-1.8297 -5.574219,-3.7871 a 0.5650345,0.5650345 0 0 0 -0.519531,-0.2851 z" style="color:#000000;font-style:normal;font-variant:normal;font-weight:normal;font-stretch:normal;font-size:medium;line-height:normal;font-family:sans-serif;text-indent:0;text-align:start;text-decoration:none;text-decoration-line:none;text-decoration-style:solid;text-decoration-color:#000000;letter-spacing:normal;word-spacing:normal;text-transform:none;direction:ltr;block-progression:tb;writing-mode:lr-tb;baseline-shift:baseline;text-anchor:start;white-space:normal;clip-rule:nonzero;display:inline;overflow:visible;visibility:visible;opacity:1;isolation:auto;mix-blend-mode:normal;color-interpolation:sRGB;color-interpolation-filters:linearRGB;solid-color:#000000;solid-opacity:1;fill:#2b4255;fill-opacity:1;fill-rule:nonzero;stroke:none;stroke-width:1.12995601;stroke-linecap:round;stroke-linejoin:round;stroke-miterlimit:10;stroke-dasharray:none;stroke-dashoffset:0;stroke-opacity:1;color-rendering:auto;image-rendering:auto;shape-rendering:auto;text-rendering:auto;enable-background:accumulate"/>
      <path inkscape:connector-curvature="0" id="path7839-2-8" d="m 37.805144,1017.0655 c -0.812205,-0.1297 -1.588079,0.4324 -1.717806,1.2447 -0.129753,0.8122 0.432427,1.588 1.244652,1.7177 0.812226,0.1297 1.588086,-0.4323 1.717799,-1.2446 0.129727,-0.8122 -0.432429,-1.5881 -1.244645,-1.7178 z m -0.15772,0.9875 c 0.278539,0.044 0.45937,0.2941 0.414881,0.5726 -0.04448,0.2785 -0.294054,0.4593 -0.572594,0.4148 -0.278539,-0.044 -0.459384,-0.294 -0.414889,-0.5725 0.04449,-0.2786 0.294072,-0.4594 0.572602,-0.4149 z" style="color:#000000;font-style:normal;font-variant:normal;font-weight:normal;font-stretch:normal;font-size:medium;line-height:normal;font-family:sans-serif;text-indent:0;text-align:start;text-decoration:none;text-decoration-line:none;text-decoration-style:solid;text-decoration-color:#000000;letter-spacing:normal;word-spacing:normal;text-transform:none;direction:ltr;block-progression:tb;writing-mode:lr-tb;baseline-shift:baseline;text-anchor:start;white-space:normal;clip-rule:nonzero;display:inline;overflow:visible;visibility:visible;opacity:1;isolation:auto;mix-blend-mode:normal;color-interpolation:sRGB;color-interpolation-filters:linearRGB;solid-color:#000000;solid-opacity:1;fill:#2b4255;fill-opacity:1;fill-rule:nonzero;stroke:none;stroke-width:1;stroke-linecap:butt;stroke-linejoin:miter;stroke-miterlimit:4;stroke-dasharray:none;stroke-dashoffset:0;stroke-opacity:1;color-rendering:auto;image-rendering:auto;shape-rendering:auto;text-rendering:auto;enable-background:accumulate"/>
      <path inkscape:connector-curvature="0" id="circle9244" d="m 42.754829,1018.1488 c -0.812195,-0.1297 -1.588063,0.4325 -1.717805,1.2446 -0.129725,0.8122 0.43244,1.5881 1.244645,1.7178 0.812215,0.1298 1.588081,-0.4324 1.717807,-1.2446 0.129712,-0.8122 -0.432441,-1.5881 -1.244647,-1.7178 z m -0.15772,0.9875 c 0.278529,0.044 0.459368,0.2941 0.414883,0.5726 -0.04449,0.2785 -0.294063,0.4593 -0.572602,0.4149 -0.27853,-0.044 -0.459375,-0.2941 -0.414882,-0.5726 0.0445,-0.2786 0.294071,-0.4594 0.572601,-0.4149 z" style="color:#000000;font-style:normal;font-variant:normal;font-weight:normal;font-stretch:normal;font-size:medium;line-height:normal;font-family:sans-serif;text-indent:0;text-align:start;text-decoration:none;text-decoration-line:none;text-decoration-style:solid;text-decoration-color:#000000;letter-spacing:normal;word-spacing:normal;text-transform:none;direction:ltr;block-progression:tb;writing-mode:lr-tb;baseline-shift:baseline;text-anchor:start;white-space:normal;clip-rule:nonzero;display:inline;overflow:visible;visibility:visible;opacity:1;isolation:auto;mix-blend-mode:normal;color-interpolation:sRGB;color-interpolation-filters:linearRGB;solid-color:#000000;solid-opacity:1;fill:#2b4255;fill-opacity:1;fill-rule:nonzero;stroke:none;stroke-width:1;stroke-linecap:butt;stroke-linejoin:miter;stroke-miterlimit:4;stroke-dasharray:none;stroke-dashoffset:0;stroke-opacity:1;color-rendering:auto;image-rendering:auto;shape-rendering:auto;text-rendering:auto;enable-background:accumulate"/>
    </g>
  </g>

	
	
	<metadata>
		<rdf:RDF xmlns:rdf="http://www.w3.org/1999/02/22-rdf-syntax-ns#" xmlns:rdfs="http://www.w3.org/2000/01/rdf-schema#" xmlns:dc="http://purl.org/dc/elements/1.1/">
			<rdf:Description about="https://iconscout.com/legal#licenses" dc:title="Face, Happy, Healthy, Lucky, Smile, Emot, Cheerful" dc:description="Face, Happy, Healthy, Lucky, Smile, Emot, Cheerful" dc:publisher="Iconscout" dc:date="2016-12-14" dc:format="image/svg+xml" dc:language="en">
				<dc:creator>
					<rdf:Bag>
						<rdf:li>Dalpat Prajapati</rdf:li>
					</rdf:Bag>
				</dc:creator>
			</rdf:Description>
		</rdf:RDF>
    </metadata></svg>
