<svg width="44" height="44" viewBox="0 0 44 44" fill="none" xmlns="http://www.w3.org/2000/svg">
<path d="M8.915 20V9.35H11.84V20H8.915ZM11.84 28.765V34H8.915V23.35H11.195L15.47 28.765V23.35H18.395V34H16.07L11.84 28.765ZM23.7818 34.15C23.0918 34.15 22.4768 34.045 21.9368 33.835C21.3968 33.615 20.9418 33.32 20.5718 32.95C20.2118 32.58 19.9368 32.155 19.7468 31.675C19.5568 31.195 19.4618 30.69 19.4618 30.16C19.4618 29.59 19.5518 29.05 19.7318 28.54C19.9218 28.03 20.1968 27.585 20.5568 27.205C20.9268 26.825 21.3768 26.525 21.9068 26.305C22.4468 26.075 23.0718 25.96 23.7818 25.96C24.4818 25.96 25.1018 26.075 25.6418 26.305C26.1818 26.525 26.6318 26.825 26.9918 27.205C27.3618 27.575 27.6368 28.01 27.8168 28.51C28.0068 29 28.1018 29.515 28.1018 30.055C28.1018 30.205 28.0918 30.36 28.0718 30.52C28.0618 30.67 28.0468 30.805 28.0268 30.925H22.4918C22.5218 31.345 22.6768 31.65 22.9568 31.84C23.2368 32.02 23.5418 32.11 23.8718 32.11C24.1818 32.11 24.4718 32.04 24.7418 31.9C25.0218 31.76 25.2068 31.565 25.2968 31.315L27.7118 32.005C27.3918 32.635 26.8968 33.15 26.2268 33.55C25.5668 33.95 24.7518 34.15 23.7818 34.15ZM25.0418 29.215C24.9918 28.835 24.8518 28.535 24.6218 28.315C24.3918 28.095 24.0968 27.985 23.7368 27.985C23.3768 27.985 23.0818 28.095 22.8518 28.315C22.6218 28.535 22.4818 28.835 22.4318 29.215H25.0418ZM34.4845 33.565C34.0845 33.735 33.6545 33.88 33.1945 34C32.7445 34.11 32.2995 34.165 31.8595 34.165C31.5395 34.165 31.2345 34.125 30.9445 34.045C30.6545 33.965 30.3995 33.835 30.1795 33.655C29.9695 33.475 29.7995 33.24 29.6695 32.95C29.5495 32.66 29.4895 32.3 29.4895 31.87V28.255H28.5145V26.11H29.4895V23.635H32.3395V26.11H33.8845V28.255H32.3395V30.865C32.3395 31.125 32.3945 31.31 32.5045 31.42C32.6145 31.52 32.7645 31.57 32.9545 31.57C33.0945 31.57 33.2545 31.55 33.4345 31.51C33.6145 31.46 33.7945 31.395 33.9745 31.315L34.4845 33.565Z" fill="#2F2E41"/>
<rect x="1.5" y="1.5" width="41" height="41" rx="6.5" stroke="transparent" stroke-width="3"/>
<line x1="19.5" y1="11.5" x2="25.5" y2="11.5" stroke="#E4857F" stroke-width="3" stroke-linecap="round" stroke-linejoin="round"/>
<line x1="19.5" y1="16.5" x2="33.5" y2="16.5" stroke="#E4857F" stroke-width="3" stroke-linecap="round"/>
</svg>
